<?xml version="1.0" encoding="utf-8"?><svg viewBox="0 0 283 66" xmlns="http://www.w3.org/2000/svg" xmlns:xlink="http://www.w3.org/1999/xlink"><style>:root>svg{display:none}:root>svg:target{display:block}</style><svg fill="none" viewBox="0 0 19 19" id="application" xmlns="http://www.w3.org/2000/svg"><path d="M18 18h-6M14.5 1.5a2.121 2.121 0 113 3L5 17l-4 1 1-4L14.5 1.5z" stroke="#2B2E34" stroke-width="1.7" stroke-linecap="round" stroke-linejoin="round"/></svg><svg fill="none" viewBox="0 0 24 10" id="arrow" xmlns="http://www.w3.org/2000/svg"><path d="M23.46 5.46a.65.65 0 000-.92L19.323.404a.65.65 0 10-.92.919L22.082 5l-3.677 3.677a.65.65 0 00.919.92L23.46 5.46zM0 5.65h23v-1.3H0v1.3z" fill="#2B2E34"/></svg><svg fill="none" viewBox="0 0 44 15" id="arrows" xmlns="http://www.w3.org/2000/svg"><path d="M13.684 13l5.841-5.5L13.684 2" stroke="#38D3E8" stroke-opacity=".5" stroke-width="2.2" stroke-linecap="round" stroke-linejoin="round"/><path d="M2 13l5.842-5.5L2 2" stroke="#38D3E8" stroke-opacity=".2" stroke-width="2.2" stroke-linecap="round" stroke-linejoin="round"/><path d="M37.05 13l5.842-5.5L37.05 2" stroke="#38D3E8" stroke-width="2.2" stroke-linecap="round" stroke-linejoin="round"/><path d="M25.367 13l5.842-5.5L25.367 2" stroke="#38D3E8" stroke-opacity=".8" stroke-width="2.2" stroke-linecap="round" stroke-linejoin="round"/></svg><svg fill="none" viewBox="0 0 28 10" id="arrows-white" xmlns="http://www.w3.org/2000/svg"><path d="M8.28 8.37l3.64-3.64-3.64-3.64" stroke="#fff" stroke-opacity=".5" stroke-width="2" stroke-linecap="round" stroke-linejoin="round"/><path d="M1 8.37l3.64-3.64L1 1.09" stroke="#fff" stroke-opacity=".2" stroke-width="2" stroke-linecap="round" stroke-linejoin="round"/><path d="M22.84 8.37l3.64-3.64-3.64-3.64" stroke="#fff" stroke-width="2" stroke-linecap="round" stroke-linejoin="round"/><path d="M15.56 8.37l3.64-3.64-3.64-3.64" stroke="#fff" stroke-opacity=".8" stroke-width="2" stroke-linecap="round" stroke-linejoin="round"/></svg><svg fill="none" viewBox="0 0 22 24" id="basket" xmlns="http://www.w3.org/2000/svg"><path d="M16.116 7.643V5.505a5.073 5.073 0 00-10.145 0v5.073a.725.725 0 001.45 0V9.091h5.796v-1.45H7.42V5.506a3.623 3.623 0 117.247 0v5.036a.725.725 0 101.449 0V9.092h3.623v13.043H2.348V9.092h2.174v-1.45H.899v14.559a1.384 1.384 0 001.384 1.384h17.521a1.384 1.384 0 001.384-1.384V7.643h-5.072z" fill="#2B2E34"/></svg><svg fill="none" viewBox="0 0 21 23" id="basket-buy" xmlns="http://www.w3.org/2000/svg"><path d="M15.261 7.333v.1h4.861v13.852a1.226 1.226 0 01-1.226 1.226H2.104a1.226 1.226 0 01-1.226-1.226V7.433H4.15v1.19H2.067v12.7H18.933v-12.7h-3.672v1.488a.594.594 0 01-1.189 0V5.285a3.572 3.572 0 10-7.144 0v2.148h5.555v1.19H6.928V10.145a.594.594 0 11-1.19 0V5.285a4.761 4.761 0 019.523 0v2.048z" fill="#fff" stroke="#fff" stroke-width=".2"/></svg><svg fill="none" viewBox="0 0 21 21" id="bottle" xmlns="http://www.w3.org/2000/svg"><path d="M11.177 7.155v.078l.075.02a3.194 3.194 0 012.377 2.662l1.047 7.848a2.77 2.77 0 01-2.747 3.137H3.57a2.771 2.771 0 01-2.747-3.137l-.1-.014.1.014L1.87 9.915a3.194 3.194 0 012.377-2.663l.075-.019v-2.46a.9.9 0 01.9-.9H7.03V1.541H4.322V1a.9.9 0 01.9-.9h6.926c.768 0 1.49.299 2.033.842l2.07 2.07a.72.72 0 01-1.018 1.019l-2.07-2.07c-.271-.271-.632-.42-1.014-.42H8.47V3.873H10.277a.9.9 0 01.9.9v2.382zm-1.44-1.74v-.1H5.762v1.84H9.736v-1.74zM2.251 17.952l.099.013-.1-.013c-.05.385.063.76.319 1.052.256.293.612.454 1 .454h8.359c.389 0 .745-.161 1-.454.257-.292.37-.667.319-1.052L12.2 10.106a1.746 1.746 0 00-1.725-1.51H5.023c-.869 0-1.61.649-1.725 1.51l-1.046 7.847zm14.667-7.331h0v.002a.921.921 0 001.84 0h.001v-.006c-.003-.04-.042-.403-.7-1.372a12.135 12.135 0 00-.139-.2l-.081-.115-.082.115-.138.2c-.667.981-.7 1.343-.7 1.376zm-8.408 2.626v.1H10.151v1.44H8.512v1.641h-1.44V14.79H5.43v-1.441H7.07V11.708h1.441v1.54zm9.232-6.502l.097-.117a55.663 55.663 0 01.51.627c.322.4.694.876.906 1.187l.083-.056-.083.056c.856 1.262.945 1.856.945 2.18a2.364 2.364 0 01-2.361 2.361 2.364 2.364 0 01-2.361-2.361c0-.324.088-.918.944-2.18l-.083-.056.083.056c.212-.311.584-.787.905-1.187.16-.2.308-.38.415-.51z" fill="#2B2E34" stroke="#fff" stroke-width=".2"/></svg><svg fill="none" viewBox="0 0 11 8" id="check" xmlns="http://www.w3.org/2000/svg"><path d="M1 5.2L3.077 7 10 1" stroke="#2B2E34" stroke-width="1.7" stroke-linecap="round" stroke-linejoin="round"/></svg><svg fill="none" viewBox="0 0 20 20" id="coil" xmlns="http://www.w3.org/2000/svg"><path d="M19.375 2.5h-7.813A3.13 3.13 0 008.5 5H7.232a4.382 4.382 0 014.33-3.75h7.813a.625.625 0 100-1.25h-7.813a5.633 5.633 0 00-5.59 5h-.318A4.722 4.722 0 00.938 9.717v.908H.625A.625.625 0 000 11.25v2.5c0 .345.28.625.625.625H15c.345 0 .625-.28.625-.625v-2.5a.625.625 0 00-.625-.625h-.313v-.908C14.688 7.116 12.572 5 9.971 5h-.176a1.878 1.878 0 011.768-1.25h7.812a.625.625 0 100-1.25zm-5 10.625H1.25v-1.25h13.125v1.25zm-.938-3.408v.908H2.188v-.908A3.47 3.47 0 015.655 6.25h4.317a3.47 3.47 0 013.466 3.467zM7.813 15a.625.625 0 00-.625.625v.898a.625.625 0 101.25 0v-.898A.625.625 0 007.811 15zM11.563 15a.625.625 0 00-.626.625v.898a.625.625 0 101.25 0v-.898a.625.625 0 00-.624-.625zM9.688 17.852a.625.625 0 00-.626.625v.898a.625.625 0 101.25 0v-.898a.625.625 0 00-.624-.625zM13.75 17.852a.625.625 0 00-.625.625v.898a.625.625 0 101.25 0v-.898a.625.625 0 00-.625-.625zM4.063 15a.625.625 0 00-.625.625v.898a.625.625 0 101.25 0v-.898A.625.625 0 004.063 15zM5.938 17.852a.625.625 0 00-.625.625v.898a.625.625 0 101.25 0v-.898a.625.625 0 00-.625-.625zM2.188 17.852a.625.625 0 00-.626.625v.898a.625.625 0 101.25 0v-.898a.625.625 0 00-.624-.625z" fill="#2B2E34"/></svg><svg fill="none" viewBox="0 0 23 24" id="contacts" xmlns="http://www.w3.org/2000/svg"><path d="M19.846 10.094h-.057V8.76c0-4.286-3.633-7.76-8.113-7.76-4.48 0-8.113 3.474-8.113 7.76v1.334h-.341c-1.253 0-2.22 1.062-2.22 2.287v3.404c-.032 1.187.949 2.174 2.19 2.205H5.328a.527.527 0 00.513-.572v-6.67c0-.327-.2-.654-.513-.654h-.626V8.76c0-3.684 3.122-6.67 6.974-6.67 3.852 0 6.974 2.986 6.974 6.67v1.334h-.626c-.313 0-.513.327-.513.654v6.67a.524.524 0 00.513.572h.654l-.056.082c-.855 1.085-2.195 1.722-3.616 1.715-.31-1.459-1.799-2.4-3.324-2.102-1.304.254-2.244 1.346-2.255 2.62C9.443 21.796 10.713 23 12.274 23a2.997 2.997 0 002.05-.844 2.36 2.36 0 00.682-1.307c1.78.006 3.457-.791 4.526-2.151l.541-.762c1.224-.082 1.993-.817 1.993-1.88v-3.403c0-1.17-.911-2.559-2.22-2.559zM4.702 16.901h-1.48c-.613-.014-1.098-.501-1.083-1.087l.001-.03v-3.403c0-.626.456-1.198 1.082-1.198h1.48v5.718zm8.796 4.492a1.715 1.715 0 01-1.224.518c-.926-.014-1.678-.721-1.708-1.607 0-.887.751-1.606 1.679-1.607.927 0 1.68.719 1.68 1.606v.001c.023.405-.132.8-.427 1.09zm7.43-5.336c0 .735-.74.844-1.082.844H18.65v-5.718h1.196c.626 0 1.081.844 1.081 1.47v3.404z" fill="#2B2E34"/><path fill-rule="evenodd" clip-rule="evenodd" d="M3.221 17.99h-.03c-1.24-.03-2.222-1.018-2.19-2.205V12.38c0-1.225.968-2.287 2.22-2.287h.342V8.76C3.563 4.474 7.195 1 11.675 1s8.113 3.474 8.113 7.76v1.334h.057c1.31 0 2.22 1.389 2.22 2.56v3.403c0 1.062-.768 1.797-1.992 1.879l-.541.762c-1.07 1.36-2.747 2.157-4.526 2.15a2.36 2.36 0 01-.684 1.308 2.998 2.998 0 01-2.049.844c-1.561 0-2.83-1.203-2.847-2.696.011-1.273.951-2.365 2.255-2.62 1.525-.297 3.014.644 3.325 2.103 1.359.006 2.645-.576 3.501-1.577.039-.045.077-.091.114-.138l.057-.082h-.655a.524.524 0 01-.512-.572v-6.67c0-.327.199-.654.512-.654h.626V8.76c0-3.684-3.122-6.67-6.974-6.67-3.851 0-6.974 2.986-6.974 6.67v1.334h.626c.314 0 .513.327.513.654v6.67a.527.527 0 01-.512.572H3.22zm-.035.22C1.833 18.175.747 17.098.78 15.781v-3.4c0-1.337 1.056-2.508 2.44-2.508h.122V8.76c0-4.416 3.74-7.98 8.332-7.98 4.593 0 8.333 3.564 8.333 7.98v1.12c.666.053 1.22.426 1.61.918.42.53.667 1.217.667 1.855v3.404c0 .587-.214 1.096-.606 1.466-.368.35-.88.564-1.486.623l-.488.688c-1.076 1.369-2.742 2.187-4.519 2.233-.112.47-.357.901-.71 1.246a3.217 3.217 0 01-2.2.907h-.003c-1.672 0-3.05-1.29-3.067-2.913v-.004c.012-1.385 1.033-2.561 2.433-2.834 1.573-.307 3.123.614 3.538 2.096a4.364 4.364 0 003.035-1.355h-.199a.744.744 0 01-.723-.803v-6.66c0-.204.062-.414.181-.578a.677.677 0 01.552-.295h.406V8.76c0-3.554-3.014-6.45-6.754-6.45-3.74 0-6.754 2.896-6.754 6.45v1.114h.406c.242 0 .431.128.552.295.12.164.18.374.18.579v6.66c0 .582-.53.791-.59.801m-.768-1.308v-5.718h-1.48c-.626 0-1.082.572-1.082 1.198v3.433c-.016.586.47 1.073 1.082 1.087h1.48zm-.22-.22v-5.278h-1.26c-.477 0-.862.443-.862.978v3.438c-.012.455.366.85.865.862H4.48zm8.862 4.555c.252-.246.381-.58.361-.919v-.014m-.36.933l-.005.005.004-.005zm-.005.005a1.495 1.495 0 01-1.065.45l1.065-.45zm-1.065.45c-.815-.014-1.461-.633-1.489-1.39.002-.755.645-1.383 1.459-1.384.815 0 1.46.63 1.46 1.386m-1.43 1.608c.464-.003.908-.19 1.223-.517.296-.29.45-.685.427-1.09 0-.888-.753-1.607-1.68-1.607-.928 0-1.68.72-1.679 1.608.03.885.782 1.592 1.708 1.606zm8.348-5.533a.567.567 0 00.084-.321v-3.403c0-.267-.099-.593-.269-.849-.172-.26-.384-.402-.592-.402h-.976v5.278h.976c.155 0 .384-.026.567-.121a.55.55 0 00.21-.182zm-.777.523c.341 0 1.082-.109 1.082-.844v-3.403c0-.627-.456-1.47-1.082-1.47h-1.196V16.9h1.196z" fill="#2B2E34"/><circle cx="12.351" cy="20.35" r="1.35" fill="#FBFBFB"/></svg><svg fill="none" viewBox="0 0 35 25" id="delivery" xmlns="http://www.w3.org/2000/svg"><path d="M8.59 18.774H4.985a1.04 1.04 0 100 2.08H8.59a1.04 1.04 0 100-2.08z" fill="#2B2E34" fill-opacity=".12" stroke="#fff" stroke-width=".3"/><path fill-rule="evenodd" clip-rule="evenodd" d="M31.842 9.92l1.939 2.497c.14.182.218.407.218.638v6.76a1.04 1.04 0 01-1.04 1.039h-3.017a4.167 4.167 0 01-4.019 3.085 4.167 4.167 0 01-4.019-3.085H15.73a4.167 4.167 0 01-4.018 3.085 4.164 4.164 0 01-4.16-4.16 4.164 4.164 0 014.16-4.16 4.167 4.167 0 014.036 3.155h6.14a4.167 4.167 0 014.036-3.154 4.167 4.167 0 014.037 3.154h1.959v-5.363l-1.515-1.95h-8.087a1.04 1.04 0 01-1.04-1.04V3.14H4.985a1.04 1.04 0 110-2.08h17.332c.575 0 1.04.466 1.04 1.04v1.04h4.438c.393 0 .753.221.93.573l3.12 6.204-.003.002zm-2.597-.54l-2.091-4.16h-3.797v4.16h5.888zm-1.242 10.385a2.082 2.082 0 00-2.08-2.065c-1.147 0-2.08.933-2.08 2.08s.933 2.08 2.08 2.08a2.082 2.082 0 002.08-2.095zM11.71 21.859a2.082 2.082 0 01-2.08-2.08c0-1.146.933-2.08 2.08-2.08s2.08.933 2.08 2.08c0 1.148-.932 2.08-2.08 2.08z" fill="#2B2E34"/><path d="M33.78 12.417l.119-.092-.118.092zM31.843 9.92l-.068-.134-.163.082.112.144.119-.092zm2.157 9.894h.15-.15zm-4.057 1.04v-.15h-.115l-.03.111.145.039zm-8.038 0l.145-.039-.03-.111h-.115v.15zm-6.175 0v-.15h-.115l-.03.111.146.039zm.018-2.08l-.145.036.028.114h.117v-.15zm6.14 0v.15h.117l.028-.114-.145-.036zm8.073 0l-.145.036.028.114h.117v-.15zm1.959 0v.15h.15v-.15h-.15zm0-5.363h.15v-.051l-.032-.041-.118.092zm-1.515-1.95l.119-.093-.045-.058h-.074v.15zm-9.127-8.32h.15v-.15h-.15v.15zm2.08 0h-.15v.15h.15v-.15zm5.368.573l.134-.068-.134.068zm3.12 6.204l.067.134.134-.067-.068-.134-.134.067zm-4.691-4.697l.134-.068-.042-.082h-.092v.15zm2.091 4.16v.15h.244l-.11-.218-.134.067zm-5.888-4.16v-.15h-.15v.15h.15zm0 4.16h-.15v.15h.15v-.15zm4.646 10.384l.15.007v-.008h-.15zm0 .075l.15.005v-.008l-.15.003zm5.896-7.515L31.96 9.828l-.237.184 1.939 2.497.237-.184zm.25.73c0-.264-.088-.521-.25-.73l-.237.184a.891.891 0 01.187.546h.3zm0 6.76v-6.76h-.3v6.76h.3zm-1.19 1.189a1.19 1.19 0 001.19-1.19h-.3a.89.89 0 01-.89.89v.3zm-3.017 0h3.017v-.3h-3.017v.3zm-.145-.189a4.017 4.017 0 01-3.874 2.974v.3a4.317 4.317 0 004.164-3.196l-.29-.078zm-3.874 2.974a4.017 4.017 0 01-3.874-2.974l-.29.078a4.317 4.317 0 004.164 3.196v-.3zm-4.019-3.085H15.73v.3h6.175v-.3zm-6.32.111a4.017 4.017 0 01-3.873 2.974v.3a4.317 4.317 0 004.163-3.196l-.29-.078zm-3.873 2.974a4.014 4.014 0 01-4.01-4.01h-.3a4.314 4.314 0 004.31 4.31v-.3zM7.7 19.78c0-2.21 1.799-4.01 4.01-4.01v-.3a4.314 4.314 0 00-4.31 4.31h.3zm4.01-4.01a4.017 4.017 0 013.89 3.041l.292-.072a4.317 4.317 0 00-4.183-3.268v.3zm4.036 3.155h6.14v-.3h-6.14v.3zm6.285-.114a4.017 4.017 0 013.891-3.04v-.3a4.317 4.317 0 00-4.182 3.268l.291.072zm3.891-3.04a4.017 4.017 0 013.892 3.04l.29-.072a4.317 4.317 0 00-4.182-3.268v.3zm5.996 2.854H29.96v.3h1.959v-.3zm-.15-5.213v5.363h.3v-5.363h-.3zm-1.483-1.859l1.514 1.95.238-.183-1.515-1.95-.237.183zm-7.969.058h8.087v-.3h-8.087v.3zm-1.19-1.19c0 .658.533 1.19 1.19 1.19v-.3a.89.89 0 01-.89-.89h-.3zm0-7.28v7.28h.3V3.14h-.3zm-16.142.15h16.292v-.3H4.985v.3zM3.795 2.1c0 .658.533 1.19 1.19 1.19v-.3a.89.89 0 01-.89-.89h-.3zM4.985.912a1.19 1.19 0 00-1.19 1.19h.3a.89.89 0 01.89-.89v-.3zm17.332 0H4.985v.3h17.332v-.3zm1.19 1.19a1.19 1.19 0 00-1.19-1.19v.3a.89.89 0 01.89.89h.3zm0 1.04V2.1h-.3v1.04h.3zm4.288-.15h-4.438v.3h4.438v-.3zm1.064.655a1.19 1.19 0 00-1.064-.655v.3a.89.89 0 01.796.49l.268-.135zm3.12 6.205l-3.12-6.205-.268.135 3.12 6.205.267-.135zm-.07.203l.003-.002-.135-.268-.003.002.135.268zm-4.89-4.766l2.092 4.16.268-.135-2.091-4.16-.268.135zm-3.662.083h3.797v-.3h-3.797v.3zm.15 4.01V5.22h-.3v4.16h.3zm5.738-.15h-5.888v.3h5.888v-.3zm-1.092 10.533a2.232 2.232 0 00-2.23-2.214v.3c1.06 0 1.923.858 1.93 1.916l.3-.002zm-2.23-2.214c-1.23 0-2.23 1-2.23 2.23h.3c0-1.065.866-1.93 1.93-1.93v-.3zm-2.23 2.23c0 1.23 1 2.23 2.23 2.23v-.3a1.932 1.932 0 01-1.93-1.93h-.3zm2.23 2.23a2.232 2.232 0 002.23-2.165l-.3-.009a1.932 1.932 0 01-1.93 1.873v.3zm1.929-2.196v.03l.3-.007v-.023h-.3zm.001-.056l-.001.056h.3l.001-.042-.3-.014zm-18.372.021c0 1.23 1 2.23 2.23 2.23v-.3a1.932 1.932 0 01-1.93-1.93h-.3zm2.23-2.23c-1.23 0-2.23 1-2.23 2.23h.3c0-1.064.865-1.93 1.93-1.93v-.3zm2.23 2.23c0-1.23-1.001-2.23-2.23-2.23v.3c1.063 0 1.93.866 1.93 1.93h.3zm-2.23 2.23c1.23 0 2.23-1 2.23-2.23h-.3c0 1.065-.866 1.93-1.93 1.93v.3z" fill="#fff"/><path d="M8.523 13.505H3.739a1.04 1.04 0 100 2.08h4.784a1.04 1.04 0 100-2.08z" fill="#2B2E34" fill-opacity=".3" stroke="#fff" stroke-width=".3"/><path d="M10.914 9.415H2.04a1.04 1.04 0 100 2.08h8.874a1.04 1.04 0 100-2.08z" fill="#2B2E34" fill-opacity=".6" stroke="#fff" stroke-width=".3"/><path d="M12.613 5.325H3.74a1.04 1.04 0 100 2.08h8.874a1.04 1.04 0 100-2.08z" fill="#2B2E34" fill-opacity=".8" stroke="#fff" stroke-width=".3"/></svg><svg fill="none" viewBox="0 0 157 31" id="dev-logo" xmlns="http://www.w3.org/2000/svg"><path d="M41.96 16.284V21h-2.214V8.4c.624 0 1.302-.006 2.034-.018.732-.012 1.332-.018 1.8-.018 3.048 0 4.572 1.296 4.572 3.888 0 .96-.246 1.752-.738 2.376-.492.6-1.056 1.008-1.692 1.224L49.664 21h-2.682l-3.474-4.716H41.96zm1.512-5.85c-.06 0-.156.006-.288.018-.132 0-.318.006-.558.018h-.666v3.744h1.44c.708 0 1.284-.174 1.728-.522.456-.348.684-.822.684-1.422 0-1.224-.78-1.836-2.34-1.836zm13.143 8.298l.594 1.458c-.804.672-1.836 1.008-3.096 1.008-1.296 0-2.352-.39-3.168-1.17-.792-.768-1.188-1.794-1.188-3.078 0-1.2.39-2.208 1.17-3.024.78-.816 1.818-1.224 3.114-1.224 1.068 0 1.974.354 2.718 1.062.744.708 1.116 1.608 1.116 2.7 0 .48-.042.852-.126 1.116H51.9c.084.588.342 1.05.774 1.386.444.336.996.504 1.656.504.9 0 1.662-.246 2.286-.738zm-2.664-4.302c-1.176 0-1.884.588-2.124 1.764h3.978c.012-.516-.156-.936-.504-1.26-.336-.336-.786-.504-1.35-.504zM67.266 24.6h-2.07v-4.014a3.587 3.587 0 01-1.998.612c-1.284 0-2.31-.384-3.078-1.152-.756-.78-1.134-1.812-1.134-3.096 0-1.212.438-2.22 1.314-3.024.888-.816 1.998-1.224 3.33-1.224 1.392 0 2.604.324 3.636.972V24.6zm-3.798-5.328c.696 0 1.272-.246 1.728-.738v-3.492c-.54-.264-1.068-.396-1.584-.396-.744 0-1.332.228-1.764.684-.432.444-.648 1.014-.648 1.71 0 .648.204 1.182.612 1.602.42.42.972.63 1.656.63zM74.8 12.9h2.07V21H74.8v-.99c-.648.792-1.512 1.188-2.592 1.188-.864 0-1.554-.288-2.07-.864-.516-.576-.774-1.404-.774-2.484V12.9h2.07v4.518c0 1.236.516 1.854 1.548 1.854.708 0 1.314-.33 1.818-.99V12.9zm10.73 5.832l.594 1.458c-.804.672-1.836 1.008-3.096 1.008-1.296 0-2.352-.39-3.168-1.17-.792-.768-1.188-1.794-1.188-3.078 0-1.2.39-2.208 1.17-3.024.78-.816 1.818-1.224 3.114-1.224 1.068 0 1.974.354 2.718 1.062.744.708 1.116 1.608 1.116 2.7 0 .48-.042.852-.126 1.116h-5.85c.084.588.342 1.05.774 1.386.444.336.996.504 1.656.504.9 0 1.662-.246 2.286-.738zm-2.664-4.302c-1.176 0-1.884.588-2.124 1.764h3.978c.012-.516-.156-.936-.504-1.26-.336-.336-.786-.504-1.35-.504zm5.322.738c0-.756.276-1.356.828-1.8.552-.444 1.266-.666 2.142-.666 1.32 0 2.346.342 3.078 1.026l-.774 1.476c-.66-.516-1.392-.774-2.196-.774-.288 0-.528.072-.72.216-.192.132-.288.294-.288.486 0 .396.51.726 1.53.99.372.084.702.18.99.288.288.096.582.24.882.432.312.18.552.42.72.72.168.3.252.648.252 1.044 0 .792-.3 1.422-.9 1.89-.588.468-1.38.702-2.376.702-.708 0-1.398-.15-2.07-.45-.684-.312-1.122-.624-1.314-.936l1.008-1.35c.228.276.606.51 1.134.702.54.204 1.002.306 1.386.306.468.048.798-.102.99-.45.192-.36.066-.654-.378-.882-.18-.096-.462-.198-.846-.306-.372-.108-.72-.216-1.044-.324a8.619 8.619 0 01-.972-.45 2.078 2.078 0 01-.774-.738c-.192-.324-.288-.708-.288-1.152zm8.088 2.754V10.65h2.07v2.25h2.61v1.944h-2.61v2.952c0 .972.324 1.458.972 1.458.408 0 .822-.156 1.242-.468l.63 1.602c-.66.528-1.458.792-2.394.792-.876 0-1.518-.264-1.926-.792-.396-.54-.594-1.362-.594-2.466zM107.649 21h-.153V9.1h.187c.488 0 .941-.006 1.36-.017a91.694 91.694 0 011.496-.034c1.145 0 2.154.159 3.026.476.884.306 1.587.737 2.108 1.292a5.194 5.194 0 011.156 1.853c.261.68.391 1.417.391 2.21 0 1.79-.595 3.264-1.785 4.42-1.178 1.156-2.856 1.734-5.032 1.734-.487 0-.935-.006-1.343-.017a51.608 51.608 0 00-1.411-.017zm2.856-11.067c-.249 0-.617.011-1.105.034-.476.011-.799.017-.969.017v10.132c.374 0 .726.006 1.054.017.329 0 .567.006.714.017h.238c1.848 0 3.276-.487 4.284-1.462 1.009-.986 1.513-2.255 1.513-3.808 0-1.462-.481-2.652-1.445-3.57-.974-.918-2.402-1.377-4.284-1.377zm14.951 9.452l.289.68c-.692.725-1.632 1.088-2.822 1.088-1.224 0-2.205-.363-2.941-1.088-.748-.725-1.122-1.689-1.122-2.89 0-1.156.34-2.108 1.02-2.856.691-.748 1.643-1.122 2.856-1.122.986 0 1.813.317 2.482.952.657.623.986 1.456.986 2.499 0 .272-.017.51-.051.714h-6.307c.034.918.334 1.643.901 2.176.566.521 1.309.782 2.227.782 1.065 0 1.892-.312 2.482-.935zm-2.805-5.355c-.816 0-1.479.238-1.989.714-.499.476-.788 1.105-.867 1.887h5.508c-.012-.805-.255-1.44-.731-1.904-.476-.465-1.117-.697-1.921-.697zm9.629 4.964c0-.351-.148-.635-.442-.85a3.274 3.274 0 00-1.054-.51c-.408-.125-.822-.26-1.241-.408a2.69 2.69 0 01-1.071-.731c-.284-.34-.425-.765-.425-1.275 0-.612.226-1.1.68-1.462.453-.374 1.048-.561 1.785-.561 1.054 0 1.853.283 2.397.85l-.374.663c-.522-.487-1.19-.731-2.006-.731-.454 0-.828.119-1.122.357a1.061 1.061 0 00-.425.867c0 .363.141.663.425.901.294.227.646.408 1.054.544.419.125.838.26 1.258.408.419.147.77.38 1.054.697.294.317.442.72.442 1.207 0 .691-.261 1.23-.782 1.615-.51.385-1.168.578-1.972.578-.499 0-1.02-.113-1.564-.34-.51-.215-.862-.47-1.054-.765l.493-.578c.215.26.538.476.969.646.442.17.861.255 1.258.255.498 0 .906-.119 1.224-.357.328-.25.493-.59.493-1.02zM136.733 21h-.884v-7.65h.884V21zm-1.037-10.625a.5.5 0 01.187-.408.677.677 0 01.442-.153c.147 0 .278.057.391.17a.482.482 0 01.187.391.621.621 0 01-.17.459.522.522 0 01-.408.17.659.659 0 01-.459-.17.621.621 0 01-.17-.459zm3.056 11.747c0-.578.204-1.065.612-1.462.408-.397.986-.674 1.734-.833a1.105 1.105 0 01-.255-.731c0-.283.096-.538.289-.765a2.598 2.598 0 01-1.173-.969 2.595 2.595 0 01-.425-1.462c0-.782.277-1.428.833-1.938.555-.51 1.286-.765 2.193-.765.725 0 1.365.193 1.921.578h.017l2.176-.578v.833l-1.547.391c.306.465.459.958.459 1.479 0 .76-.284 1.405-.85 1.938-.567.51-1.292.765-2.176.765-.318 0-.573-.023-.765-.068a.963.963 0 00-.153.561c0 .26.073.465.221.612.43-.023.668-.034.714-.034 1.167 0 2.096.215 2.788.646.691.43 1.037 1.031 1.037 1.802 0 .76-.346 1.349-1.037 1.768-.692.43-1.621.646-2.788.646-1.179 0-2.114-.21-2.805-.629-.68-.42-1.02-1.014-1.02-1.785zm.901 0c0 .499.26.89.782 1.173.532.295 1.246.442 2.142.442.884 0 1.592-.147 2.125-.442.532-.295.799-.686.799-1.173 0-.499-.267-.895-.799-1.19-.522-.306-1.23-.459-2.125-.459-.884 0-1.593.147-2.125.442-.533.295-.799.697-.799 1.207zm1.377-7.582a1.765 1.765 0 00-.595 1.36c0 .544.198.997.595 1.36.396.363.906.544 1.53.544.623 0 1.133-.181 1.53-.544.396-.363.595-.816.595-1.36 0-.544-.204-.997-.612-1.36-.397-.363-.901-.544-1.513-.544-.601 0-1.111.181-1.53.544zm8.045 6.46h-.884v-7.65h.884v1.071c.317-.351.725-.64 1.224-.867a3.74 3.74 0 011.53-.34c1.065 0 1.864.278 2.397.833.532.555.799 1.417.799 2.584V21h-.884v-4.199c0-1.836-.839-2.754-2.516-2.754-.488 0-.964.113-1.428.34a3.155 3.155 0 00-1.122.833V21z" fill="#2B2E34"/><rect y="15.5" width="21.92" height="21.92" rx="3" transform="rotate(-45 0 15.5)" fill="#242424"/><circle cx="15.535" cy="15.5" r="8.877" fill="#FCFCFC"/><rect x="9.987" y="9.952" width="11.175" height="11.175" rx="3" fill="#242424"/><circle cx="15.519" cy="15.485" r="3.868" fill="#FCFCFC"/><rect x="13.87" y="15.5" width="2.507" height="2.507" rx="1" transform="rotate(-45 13.87 15.5)" fill="#242424"/></svg><svg fill="none" viewBox="0 0 24 24" id="filter-icon" xmlns="http://www.w3.org/2000/svg"><path d="M18 20V10M12 20V4M6 20v-6" stroke="#9F9EAC" stroke-width="2.5" stroke-linecap="round" stroke-linejoin="round"/></svg><svg fill="none" viewBox="0 0 283 66" id="footer-logo" xmlns="http://www.w3.org/2000/svg"><path d="M27.79 61.993c-1.746-5.274 4.79-18.65 8.277-24.678-5.634 9.155-8.495 15.588-9.712 20.001-1.679 6.09 4.92 7.643 7.73 1.987.524-1.053.936-2.051 1.212-2.836l-3.786 1.508c-1.129 2.21-2.951 3.6-3.721 4.018z" fill="url(#anpaint0_linear_1_987)"/><path d="M27.791 61.995c1.381-.76 3.02-2.605 3.71-4 1.632-.633 2.037-.734 2.351-.797-.89 2.164-2.222 4.044-3.387 5.241-.876.9-2.28.748-2.674-.444z" fill="url(#anpaint1_linear_1_987)"/><path d="M46.675 31.047c-1.319-5.036-5.009-6.736-5.2-4.848-1.521 4.281-3.93 8.458-4.945 10.01-8.403 15.968-4.65 20.839-2.917 21.09 15.168-5.942 15.07-19.998 13.062-26.252z" fill="url(#anpaint2_linear_1_987)"/><path d="M23.586 23.118c.724-4.565.293-14.254-6.872-19.977-.445.949-.42 3.783 1.968 9.047l-2.286 3.732C14.26 12.126 10.492 2.383 13.793.168c3.018-1.504 12.426 7.195 9.793 22.95z" fill="url(#anpaint3_radial_1_987)"/><path d="M14.347 3.021c.742-.497 2.23-.118 2.478.193-.693 2.484.964 6.95 1.912 9l-1.779 2.93c-3.462-8.05-3.415-11.377-2.611-12.123z" fill="url(#anpaint4_linear_1_987)"/><path d="M32.462 28.872C33.474 14.44 26.335 4.755 22.64 1.717c17.286 9.655 23.128 23.383 23.888 29.04-2.332-7.945-10.35-4.567-14.066-1.885z" fill="url(#anpaint5_linear_1_987)"/><path opacity=".25" d="M43.405 26.361c-3.02-8.619-12.291-16.876-16.55-19.803 5.601 8.282 6.02 17.707 5.664 22.17 4.53-3.052 7.929-3.737 10.886-2.367z" fill="url(#anpaint6_linear_1_987)"/><path d="M41.799 26.698c4.145 5.503 8.584 18.828-6.825 28.103 1.68-8.674 5.396-26.44 6.825-28.103z" fill="url(#anpaint7_linear_1_987)"/><path d="M33.622 57.298c-3.09-2.961.506-14.963 2.674-20.642-7.417 13.528-9.005 19.904-8.74 22.064 3.735-.383 3.555-.657 6.066-1.422z" fill="#27569F"/><path d="M21.546 57.924c-.714-10.04 4.075-21.253 6.559-25.605-16.812 7.972-21.482 3.322-21.715 0-3.974 16.953 8.448 24.134 15.156 25.605z" fill="url(#anpaint8_linear_1_987)"/><path d="M21.537 56.207c-.19-9.405 4.147-19.834 6.568-23.888-13.325 5.894-18.25 4.828-20.397 2.508-1.819 13.743 8.504 19.959 13.83 21.38z" fill="url(#anpaint9_linear_1_987)"/><path d="M6.403 32.43C8.39 25.34 13.41 17.994 17.425 15.145c5.403-1.722 6.33 4.116 6.308 7.282-.816 8.004-4.588 12.685-6.372 13.93-7.2 2.217-10.767-.506-10.958-3.925z" fill="url(#anpaint10_linear_1_987)"/><path d="M14.99 17.32l6.274-8.576c2.608 3.977 2.85 10.599 2.467 13.473-.89-9.306-6.137-7.425-8.741-4.897z" fill="#148CCC"/><path d="M74.296 20.719h10.8v-3.156H68c0-1.154.463-2.036 1.388-2.647.948-.61 2.2-.916 3.757-.916h12.56c.677 0 1.32.09 1.93.271.608.181 1.139.43 1.59.747.474.294.846.656 1.117 1.086.271.43.407.905.407 1.425v9.942c0 .543-.136 1.03-.407 1.46-.27.429-.643.802-1.117 1.119a6.058 6.058 0 01-1.59.712A7.787 7.787 0 0185.67 31H73.145c-.722 0-1.399-.068-2.03-.204a5.773 5.773 0 01-1.625-.61 3.428 3.428 0 01-1.118-1.086c-.248-.453-.372-.984-.372-1.595h17.095v-3.19H74.296V20.72zM110.329 31c-.699 0-1.286-.057-1.76-.17a7.679 7.679 0 01-1.219-.407 5.166 5.166 0 01-.914-.543 17.95 17.95 0 00-.812-.577l-7.177-6.141v4.58c0 .611-.147 1.132-.44 1.561-.27.408-.643.736-1.117.984a5.719 5.719 0 01-1.659.543c-.61.113-1.252.17-1.93.17h-.507V14h5.653v7.499l7.38-7.499h6.262l-7.718 7.974L114.662 31h-4.333zM139.444 27.573c0 .61-.136 1.13-.407 1.56-.27.408-.643.759-1.117 1.053-.451.271-.993.475-1.625.61a9.664 9.664 0 01-2.031.204h-12.525c-.7 0-1.354-.08-1.963-.238a6.656 6.656 0 01-1.625-.712 4.099 4.099 0 01-1.083-1.086 2.857 2.857 0 01-.373-1.459V17.461c0-.498.124-.961.373-1.391.27-.453.631-.826 1.083-1.12a5.292 5.292 0 011.625-.712 7.78 7.78 0 011.963-.238h12.525c1.535 0 2.776.305 3.724.916.97.588 1.456 1.46 1.456 2.613v10.044zm-5.654-10.01h-11.442v9.942h11.442v-9.942zM158.584 31v-6.685h-11.442V31h-5.653V17.461c0-.498.135-.95.406-1.357.271-.43.632-.792 1.083-1.086a5.96 5.96 0 011.625-.747 6.87 6.87 0 011.964-.271h.575v6.786h11.476V14h5.619v17h-5.653zM196.768 27.573c0 .724-.192 1.312-.576 1.764a3.593 3.593 0 01-1.388 1.052 6.376 6.376 0 01-1.828.51c-.654.067-1.275.101-1.861.101h-11.849v-.34c0-.791.203-1.402.61-1.832.428-.452.914-.769 1.455-.95a5.715 5.715 0 011.727-.34 40.891 40.891 0 011.422-.033h6.635v-3.19h-11.916c-.339 0-.802.023-1.388.068a7.705 7.705 0 01-1.761-.136 3.146 3.146 0 01-1.455-.78c-.406-.407-.61-1.03-.61-1.866v-7.567h.474c.361 0 .835.023 1.422.068a7.08 7.08 0 011.727.34 3.557 3.557 0 011.455.881c.406.407.61.996.61 1.765v3.63h11.442V14h5.653v13.573zM221.561 20.719c0 1.198-.576 2.103-1.727 2.714-1.151.588-2.696.882-4.637.882h-8.463c0-.362.056-.757.169-1.187.135-.453.327-.849.575-1.188.271-.34.621-.622 1.05-.848.429-.249.936-.373 1.523-.373h5.823v-3.156h-11.408v9.467c0 1.583-.486 2.67-1.456 3.257a4.549 4.549 0 01-1.693.577c-.631.09-1.275.136-1.929.136h-.576V14h17.57c1.534 0 2.775.305 3.723.916.971.61 1.456 1.493 1.456 2.647v3.156zM223.606 17.563c0-1.154.474-2.036 1.422-2.647.97-.61 2.223-.916 3.758-.916h22.24c1.535 0 2.776.305 3.724.916.97.61 1.456 1.493 1.456 2.647v5.768c0 1.2-.576 2.104-1.727 2.715-1.151.588-2.697.882-4.638.882h-7.108v.102c0 1.583-.486 2.67-1.456 3.257a4.555 4.555 0 01-1.693.577c-.632.09-1.275.136-1.929.136h-.576v-4.072h-7.109c-1.94 0-3.486-.294-4.637-.882-1.151-.61-1.727-1.516-1.727-2.715v-5.768zm19.127 5.768h7.785v-5.768h-7.785v5.768zm-13.44 0h7.786v-5.768h-7.786v5.768zM281 27.573c0 .61-.135 1.13-.406 1.56a3.579 3.579 0 01-1.117 1.053c-.452.271-.993.475-1.625.61a9.664 9.664 0 01-2.031.204h-12.526c-.699 0-1.354-.08-1.963-.238a6.673 6.673 0 01-1.625-.712 4.129 4.129 0 01-1.083-1.086 2.866 2.866 0 01-.372-1.459V17.461c0-.498.124-.961.372-1.391a3.422 3.422 0 011.083-1.12 5.303 5.303 0 011.625-.712 7.785 7.785 0 011.963-.238h12.526c1.534 0 2.776.305 3.723.916.971.588 1.456 1.46 1.456 2.613v10.044zm-5.653-10.01h-11.442v9.942h11.442v-9.942z" fill="#2B2E34"/><path d="M72.862 53.143c-1.11 0-2.071-.312-2.886-.936-.806-.624-1.317-1.378-1.534-2.262h1.274c.217.598.607 1.092 1.17 1.482.572.381 1.23.572 1.976.572.927 0 1.72-.29 2.379-.871.659-.59 1.049-1.335 1.17-2.236h-4.758v-1.118h4.745c-.139-.884-.533-1.608-1.183-2.171-.65-.572-1.434-.858-2.353-.858-.745 0-1.404.195-1.976.585a2.963 2.963 0 00-1.17 1.482h-1.274c.217-.884.728-1.638 1.534-2.262.806-.633 1.768-.949 2.886-.949 1.36 0 2.496.46 3.406 1.378.919.91 1.378 2.041 1.378 3.393 0 1.352-.46 2.487-1.378 3.406-.91.91-2.045 1.365-3.406 1.365zM79.285 53v-6.5h1.118v2.678h3.55V46.5h1.117V53h-1.118v-2.808h-3.549V53h-1.118zm10.666.13c-.945 0-1.73-.32-2.353-.962-.615-.641-.923-1.447-.923-2.418 0-.98.299-1.785.897-2.418.607-.641 1.408-.962 2.405-.962 1.005 0 1.794.355 2.366 1.066.572.71.823 1.582.754 2.613h-5.291a2.06 2.06 0 00.65 1.482c.416.39.919.585 1.508.585.884 0 1.512-.364 1.885-1.092h1.144c-.165.607-.516 1.11-1.053 1.508-.537.399-1.2.598-1.99.598zm1.274-5.304a1.883 1.883 0 00-1.287-.468c-.503 0-.953.152-1.352.455-.39.303-.633.754-.728 1.352h4.056c-.104-.59-.334-1.036-.69-1.339zm4.603 7.891H94.71V46.5h1.118v1.001c.226-.33.542-.598.95-.806a2.856 2.856 0 011.338-.325c.902 0 1.656.33 2.262.988.616.659.923 1.456.923 2.392 0 .936-.307 1.733-.923 2.392-.606.659-1.36.988-2.262.988-.476 0-.923-.104-1.339-.312a2.601 2.601 0 01-.949-.819v3.718zm.533-4.29c.416.45.945.676 1.586.676.642 0 1.17-.225 1.586-.676.416-.45.624-1.01.624-1.677s-.208-1.226-.624-1.677c-.416-.45-.944-.676-1.586-.676-.641 0-1.17.225-1.586.676-.416.45-.624 1.01-.624 1.677s.208 1.226.624 1.677zm6.55 1.573v-6.5h4.069v1.027h-2.951V53h-1.118zm8.028.13c-.979 0-1.794-.325-2.444-.975-.641-.659-.962-1.46-.962-2.405 0-.945.321-1.742.962-2.392.65-.659 1.465-.988 2.444-.988.971 0 1.777.33 2.418.988.65.65.975 1.447.975 2.392 0 .945-.325 1.746-.975 2.405-.641.65-1.447.975-2.418.975zm-1.638-1.716c.425.45.971.676 1.638.676.667 0 1.209-.225 1.625-.676.416-.45.624-1.005.624-1.664s-.208-1.213-.624-1.664c-.416-.45-.958-.676-1.625-.676s-1.213.225-1.638.676c-.416.45-.624 1.005-.624 1.664s.208 1.213.624 1.664zm9.522 1.716c-.98 0-1.79-.325-2.431-.975-.642-.659-.962-1.46-.962-2.405 0-.945.32-1.742.962-2.392.641-.659 1.451-.988 2.431-.988.806 0 1.503.225 2.093.676a3.184 3.184 0 011.183 1.742h-1.196a2.067 2.067 0 00-.78-1.014c-.364-.251-.798-.377-1.3-.377-.668 0-1.214.225-1.638.676-.416.45-.624 1.01-.624 1.677s.208 1.226.624 1.677c.424.45.97.676 1.638.676.502 0 .936-.126 1.3-.377s.624-.59.78-1.014h1.196a3.179 3.179 0 01-1.17 1.755c-.59.442-1.292.663-2.106.663zm7.876 0c-1.022 0-1.841-.338-2.457-1.014-.606-.676-.91-1.564-.91-2.665v-.663c0-1.595.286-2.786.858-3.575.572-.797 1.508-1.322 2.808-1.573l2.418-.442v1.066l-2.171.403c-.927.165-1.599.477-2.015.936-.407.46-.663 1.135-.767 2.028.564-.754 1.361-1.131 2.392-1.131.98 0 1.764.312 2.353.936.598.624.897 1.387.897 2.288 0 .953-.325 1.76-.975 2.418-.641.659-1.451.988-2.431.988zm-1.612-1.703c.416.442.954.663 1.612.663.659 0 1.201-.221 1.625-.663.425-.442.637-1.01.637-1.703 0-.65-.212-1.179-.637-1.586-.416-.416-.949-.624-1.599-.624-.667 0-1.213.212-1.638.637-.416.416-.624.94-.624 1.573 0 .693.208 1.261.624 1.703zm9.386 1.703c-.944 0-1.729-.32-2.353-.962-.615-.641-.923-1.447-.923-2.418 0-.98.299-1.785.897-2.418.607-.641 1.409-.962 2.405-.962 1.006 0 1.794.355 2.366 1.066.572.71.824 1.582.754 2.613h-5.291c.018.59.234 1.083.65 1.482.416.39.919.585 1.508.585.884 0 1.513-.364 1.885-1.092h1.144c-.164.607-.515 1.11-1.053 1.508-.537.399-1.2.598-1.989.598zm1.274-5.304a1.882 1.882 0 00-1.287-.468c-.502 0-.953.152-1.352.455-.39.303-.632.754-.728 1.352h4.056c-.104-.59-.333-1.036-.689-1.339zm4.604 7.891h-1.118V46.5h1.118v1.001c.225-.33.541-.598.949-.806a2.855 2.855 0 011.339-.325c.901 0 1.655.33 2.262.988.615.659.923 1.456.923 2.392 0 .936-.308 1.733-.923 2.392-.607.659-1.361.988-2.262.988-.477 0-.923-.104-1.339-.312a2.592 2.592 0 01-.949-.819v3.718zm.533-4.29c.416.45.944.676 1.586.676.641 0 1.17-.225 1.586-.676.416-.45.624-1.01.624-1.677s-.208-1.226-.624-1.677c-.416-.45-.945-.676-1.586-.676-.642 0-1.17.225-1.586.676-.416.45-.624 1.01-.624 1.677s.208 1.226.624 1.677zm9.319 1.703c-.945 0-1.729-.32-2.353-.962-.615-.641-.923-1.447-.923-2.418 0-.98.299-1.785.897-2.418.607-.641 1.408-.962 2.405-.962 1.005 0 1.794.355 2.366 1.066.572.71.823 1.582.754 2.613h-5.291c.017.59.234 1.083.65 1.482.416.39.919.585 1.508.585.884 0 1.512-.364 1.885-1.092h1.144c-.165.607-.516 1.11-1.053 1.508-.537.399-1.2.598-1.989.598zm1.274-5.304a1.882 1.882 0 00-1.287-.468c-.503 0-.953.152-1.352.455-.39.303-.633.754-.728 1.352h4.056c-.104-.59-.334-1.036-.689-1.339zM154.962 53v-6.5h4.069v1.027h-2.951V53h-1.118zm7.832.13c-.901 0-1.659-.33-2.275-.988-.606-.659-.91-1.456-.91-2.392 0-.936.304-1.733.91-2.392a2.992 2.992 0 012.275-.988c.477 0 .919.108 1.326.325.416.208.737.477.962.806V46.5h1.118V53h-1.118v-1.001c-.225.33-.546.602-.962.819a2.871 2.871 0 01-1.326.312zm.169-1.027c.642 0 1.17-.225 1.586-.676.416-.45.624-1.01.624-1.677s-.208-1.226-.624-1.677c-.416-.45-.944-.676-1.586-.676-.65 0-1.183.225-1.599.676-.416.45-.624 1.01-.624 1.677s.208 1.226.624 1.677c.416.45.949.676 1.599.676zm10.932 1.027c-.858 0-1.586-.277-2.184-.832-.589-.555-.936-1.257-1.04-2.106h-1.248V53h-1.118v-6.5h1.118v2.691h1.261c.13-.823.485-1.5 1.066-2.028.589-.529 1.304-.793 2.145-.793.945 0 1.725.325 2.34.975.615.65.923 1.452.923 2.405 0 .953-.308 1.755-.923 2.405-.615.65-1.395.975-2.34.975zm-1.521-1.716c.399.442.906.663 1.521.663.615 0 1.122-.221 1.521-.663.399-.45.598-1.005.598-1.664s-.199-1.209-.598-1.651c-.399-.45-.906-.676-1.521-.676-.615 0-1.122.221-1.521.663-.39.442-.585.997-.585 1.664 0 .659.195 1.213.585 1.664zm15.908.559v2.665h-1.053V53h-8.476v-6.5h1.118v5.473h2.587V46.5h1.118v5.473h2.587V46.5h1.118v5.473h1.001zM190.786 53h-1.001v-6.5h1.118v4.771l3.666-4.771h.988V53h-1.105v-4.771L190.786 53zm9.665.13c-.945 0-1.729-.32-2.353-.962-.615-.641-.923-1.447-.923-2.418 0-.98.299-1.785.897-2.418.607-.641 1.408-.962 2.405-.962 1.005 0 1.794.355 2.366 1.066.572.71.823 1.582.754 2.613h-5.291c.017.59.234 1.083.65 1.482.416.39.919.585 1.508.585.884 0 1.512-.364 1.885-1.092h1.144c-.165.607-.516 1.11-1.053 1.508-.537.399-1.2.598-1.989.598zm1.274-5.304a1.882 1.882 0 00-1.287-.468c-.503 0-.953.152-1.352.455-.39.303-.633.754-.728 1.352h4.056c-.104-.59-.334-1.036-.689-1.339zM212.387 53v-5.473h-2.067V46.5h5.343v1.027h-2.158V53h-1.118zm7.132.13c-.944 0-1.729-.32-2.353-.962-.615-.641-.923-1.447-.923-2.418 0-.98.299-1.785.897-2.418.607-.641 1.409-.962 2.405-.962 1.006 0 1.794.355 2.366 1.066.572.71.824 1.582.754 2.613h-5.291c.018.59.234 1.083.65 1.482.416.39.919.585 1.508.585.884 0 1.513-.364 1.885-1.092h1.144c-.164.607-.515 1.11-1.053 1.508-.537.399-1.2.598-1.989.598zm1.274-5.304a1.882 1.882 0 00-1.287-.468c-.502 0-.953.152-1.352.455-.39.303-.632.754-.728 1.352h4.056c-.104-.59-.333-1.036-.689-1.339zm7.6 5.174l-1.976-2.457L224.441 53h-1.391l2.665-3.289-2.444-3.211h1.352l1.794 2.353 1.781-2.353h1.365l-2.457 3.211L229.771 53h-1.378zm2.525 0v-6.5h1.118v2.678h3.549V46.5h1.118V53h-1.118v-2.808h-3.549V53h-1.118zm10.783.13c-.98 0-1.794-.325-2.444-.975-.642-.659-.962-1.46-.962-2.405 0-.945.32-1.742.962-2.392.65-.659 1.464-.988 2.444-.988.97 0 1.776.33 2.418.988.65.65.975 1.447.975 2.392 0 .945-.325 1.746-.975 2.405-.642.65-1.448.975-2.418.975zm-1.638-1.716c.424.45.97.676 1.638.676.667 0 1.209-.225 1.625-.676.416-.45.624-1.005.624-1.664s-.208-1.213-.624-1.664c-.416-.45-.958-.676-1.625-.676-.668 0-1.214.225-1.638.676-.416.45-.624 1.005-.624 1.664s.208 1.213.624 1.664zm6.339 1.677c-.295 0-.49-.013-.585-.039v-1.001c.061.017.199.026.416.026.269 0 .468-.091.598-.273.13-.19.195-.524.195-1.001V46.5h5.018V53h-1.118v-5.473h-2.782v3.51c0 .667-.16 1.179-.481 1.534-.321.347-.741.52-1.261.52zm10.647.039c-.979 0-1.794-.325-2.444-.975-.641-.659-.962-1.46-.962-2.405 0-.945.321-1.742.962-2.392.65-.659 1.465-.988 2.444-.988.971 0 1.777.33 2.418.988.65.65.975 1.447.975 2.392 0 .945-.325 1.746-.975 2.405-.641.65-1.447.975-2.418.975zm-1.638-1.716c.425.45.971.676 1.638.676.668 0 1.209-.225 1.625-.676.416-.45.624-1.005.624-1.664s-.208-1.213-.624-1.664c-.416-.45-.957-.676-1.625-.676-.667 0-1.213.225-1.638.676-.416.45-.624 1.005-.624 1.664s.208 1.213.624 1.664zM262.047 53v-6.5h4.069v1.027h-2.951V53h-1.118zm6.346 0h-1.001v-6.5h1.118v4.771l3.666-4.771h.988V53h-1.105v-4.771L268.393 53zm7.896 0h-1.001v-6.5h1.118v4.771l3.666-4.771h.988V53h-1.105v-4.771L276.289 53z" fill="#555"/><defs><linearGradient id="anpaint0_linear_1_987" x1="30.837" y1="37.315" x2="28.04" y2="65.961" gradientUnits="userSpaceOnUse"><stop stop-color="#1EA99E"/><stop offset=".359" stop-color="#D0FEFA"/><stop offset="1" stop-color="#1EA99E"/></linearGradient><linearGradient id="anpaint1_linear_1_987" x1="32.877" y1="57.617" x2="27.413" y2="64.728" gradientUnits="userSpaceOnUse"><stop stop-color="#188C83"/><stop offset="1" stop-color="#fff" stop-opacity="0"/></linearGradient><linearGradient id="anpaint2_linear_1_987" x1="42.744" y1="26.011" x2="33.733" y2="57.272" gradientUnits="userSpaceOnUse"><stop stop-color="#2D63C8"/><stop offset="1" stop-color="#08A7FA"/></linearGradient><linearGradient id="anpaint4_linear_1_987" x1="14.718" y1="2.835" x2="17.96" y2="13.449" gradientUnits="userSpaceOnUse"><stop stop-color="#ADFFF8"/><stop offset="1" stop-color="#1EA99E"/></linearGradient><linearGradient id="anpaint5_linear_1_987" x1="34.616" y1="-1.551" x2="44.423" y2="26.344" gradientUnits="userSpaceOnUse"><stop stop-color="#00AFFF"/><stop offset="1" stop-color="#4268D5"/></linearGradient><linearGradient id="anpaint6_linear_1_987" x1="37.49" y1="16.709" x2="32.504" y2="21.306" gradientUnits="userSpaceOnUse"><stop stop-color="#fff" stop-opacity=".73"/><stop offset="1" stop-color="#fff" stop-opacity="0"/></linearGradient><linearGradient id="anpaint7_linear_1_987" x1="45.689" y1="42.01" x2="40.344" y2="40.271" gradientUnits="userSpaceOnUse"><stop stop-color="#fff" stop-opacity=".18"/><stop offset="1" stop-color="#fff" stop-opacity="0"/></linearGradient><linearGradient id="anpaint8_linear_1_987" x1="28.105" y1="32.382" x2="9.51" y2="52.113" gradientUnits="userSpaceOnUse"><stop stop-color="#0D9FF4"/><stop offset="1" stop-color="#2B67CB"/></linearGradient><linearGradient id="anpaint9_linear_1_987" x1="9.413" y1="46.802" x2="15.876" y2="40.988" gradientUnits="userSpaceOnUse"><stop stop-color="#fff" stop-opacity=".25"/><stop offset="1" stop-color="#fff" stop-opacity="0"/></linearGradient><linearGradient id="anpaint10_linear_1_987" x1="20.42" y1="15.587" x2="10.518" y2="37.1" gradientUnits="userSpaceOnUse"><stop stop-color="#06AAFC"/><stop offset="1" stop-color="#1B4CAA"/></linearGradient><radialGradient id="anpaint3_radial_1_987" cx="0" cy="0" r="1" gradientUnits="userSpaceOnUse" gradientTransform="matrix(-4.7929 -9.39484 4.59761 -2.34553 19.221 9.373)"><stop stop-color="#2AAFA4"/><stop offset=".558" stop-color="#D0FDF9"/><stop offset="1" stop-color="#2AAFA4"/></radialGradient></defs></svg><svg fill="none" viewBox="0 0 24 23" id="footer-mail" xmlns="http://www.w3.org/2000/svg"><path d="M3.6 6.572h15.086c1.037 0 1.885.831 1.885 1.848v11.089c0 1.017-.848 1.848-1.885 1.848H3.6c-1.037 0-1.886-.831-1.886-1.848V8.419c0-1.016.849-1.847 1.886-1.847z" fill="#2B2E34" stroke="#2B2E34" stroke-width="1.7" stroke-linecap="round" stroke-linejoin="round"/><path d="M20.571 9.036l-9.428 6.571-9.429-6.571" stroke="#fff" stroke-width="1.7" stroke-linecap="round" stroke-linejoin="round"/></svg><svg fill="none" viewBox="0 0 21 21" id="footer-phone" xmlns="http://www.w3.org/2000/svg"><path d="M17.8 14.616c-1.299-1.085-2.618-1.742-3.901-.659l-.766.655c-.561.476-1.603 2.696-5.634-1.83-4.03-4.522-1.632-5.226-1.07-5.697l.77-.656c1.277-1.086.795-2.453-.126-3.86l-.555-.852C5.593.313 4.586-.609 3.306.475l-.692.59a6.325 6.325 0 00-2.53 4.196c-.462 2.981.994 6.395 4.33 10.141C7.747 19.15 11.01 21.032 14.1 21c2.568-.027 4.12-1.373 4.604-1.862l.694-.591c1.277-1.084.484-2.187-.816-3.274l-.782-.657z" fill="#2B2E34"/></svg><svg fill="none" viewBox="0 0 15 15" id="inst" xmlns="http://www.w3.org/2000/svg"><path d="M7.5 5.027A2.479 2.479 0 005.027 7.5 2.479 2.479 0 007.5 9.973 2.479 2.479 0 009.973 7.5 2.479 2.479 0 007.5 5.027zM14.918 7.5c0-1.024.01-2.039-.048-3.061-.058-1.188-.329-2.242-1.197-3.11-.87-.87-1.922-1.14-3.11-1.197C9.54.075 8.524.084 7.502.084c-1.024 0-2.04-.01-3.062.048C3.253.19 2.2.46 1.33 1.329.46 2.199.192 3.25.135 4.439.076 5.463.086 6.478.086 7.5c0 1.022-.01 2.04.048 3.062.057 1.187.328 2.241 1.197 3.11.87.87 1.922 1.139 3.11 1.196 1.024.058 2.039.048 3.06.048 1.025 0 2.04.01 3.062-.048 1.188-.057 2.242-.328 3.11-1.197.87-.87 1.14-1.922 1.197-3.11.06-1.022.048-2.037.048-3.06zM7.5 11.306A3.8 3.8 0 013.694 7.5 3.8 3.8 0 017.5 3.695 3.8 3.8 0 0111.306 7.5 3.8 3.8 0 017.5 11.306zm3.961-6.879a.888.888 0 110-1.777.888.888 0 110 1.777z" fill="#7E838C"/></svg><svg fill="none" viewBox="0 0 276 66" id="logo" xmlns="http://www.w3.org/2000/svg"><path d="M67.296 19.718h10.8v-3.155H61c0-1.154.463-2.036 1.388-2.647.948-.61 2.2-.916 3.758-.916h12.558c.678 0 1.32.09 1.93.271.61.181 1.14.43 1.591.747.474.294.846.656 1.117 1.085.271.43.407.905.407 1.426v9.942c0 .543-.136 1.03-.407 1.459-.27.43-.643.803-1.117 1.12a6.058 6.058 0 01-1.59.712A7.782 7.782 0 0178.67 30H66.145c-.722 0-1.399-.068-2.03-.204a5.779 5.779 0 01-1.625-.61 3.43 3.43 0 01-1.118-1.086c-.248-.453-.372-.985-.372-1.595h17.095v-3.19H67.296v-3.597zM103.329 30c-.699 0-1.286-.057-1.76-.17a7.669 7.669 0 01-1.219-.407 5.15 5.15 0 01-.914-.543 18.02 18.02 0 00-.812-.577l-7.177-6.142v4.581c0 .611-.147 1.131-.44 1.561-.27.407-.643.735-1.117.984a5.722 5.722 0 01-1.659.543c-.61.113-1.252.17-1.93.17h-.507V13h5.653v7.499l7.38-7.5h6.262l-7.718 7.975L107.662 30h-4.333zM132.444 26.573c0 .61-.136 1.13-.407 1.56a3.57 3.57 0 01-1.117 1.052c-.451.272-.993.475-1.625.611a9.664 9.664 0 01-2.031.204h-12.525c-.7 0-1.354-.08-1.963-.238a6.656 6.656 0 01-1.625-.712 4.1 4.1 0 01-1.083-1.086 2.857 2.857 0 01-.373-1.46V16.462c0-.498.124-.962.373-1.391.27-.453.631-.826 1.083-1.12a5.29 5.29 0 011.625-.713 7.775 7.775 0 011.963-.237h12.525c1.535 0 2.776.305 3.724.916.97.588 1.456 1.459 1.456 2.613v10.044zm-5.654-10.01h-11.442v9.942h11.442v-9.942zM151.584 30v-6.685h-11.442V30h-5.653V16.46c0-.497.135-.95.406-1.357.271-.43.632-.791 1.083-1.085a5.962 5.962 0 011.625-.747 6.87 6.87 0 011.964-.271h.575v6.786h11.476V13h5.619v17h-5.653zM189.768 26.573c0 .724-.192 1.312-.576 1.764a3.595 3.595 0 01-1.388 1.052 6.379 6.379 0 01-1.828.509c-.654.068-1.275.102-1.861.102h-11.849v-.34c0-.791.203-1.402.61-1.832.428-.452.914-.769 1.455-.95a5.712 5.712 0 011.727-.34 40.94 40.94 0 011.422-.033h6.635v-3.19h-11.916c-.339 0-.802.023-1.388.068a7.71 7.71 0 01-1.761-.136 3.146 3.146 0 01-1.455-.78c-.406-.407-.61-1.03-.61-1.866v-7.567h.474c.361 0 .835.022 1.422.068a7.08 7.08 0 011.727.339c.564.18 1.049.475 1.455.882.406.407.61.995.61 1.765v3.63h11.442V13h5.653v13.573zM214.561 19.718c0 1.2-.576 2.104-1.727 2.715-1.151.588-2.696.882-4.637.882h-8.463c0-.362.056-.758.169-1.188.135-.452.327-.848.575-1.187.271-.34.621-.622 1.05-.848.429-.25.936-.374 1.523-.374h5.823v-3.155h-11.408v9.467c0 1.583-.486 2.669-1.456 3.257a4.548 4.548 0 01-1.693.577c-.631.09-1.275.136-1.929.136h-.576V13h17.57c1.534 0 2.775.305 3.723.916.971.61 1.456 1.493 1.456 2.647v3.155zM216.606 16.563c0-1.154.474-2.036 1.422-2.647.97-.61 2.223-.916 3.758-.916h22.24c1.535 0 2.776.305 3.724.916.97.61 1.456 1.493 1.456 2.647v5.768c0 1.199-.576 2.104-1.727 2.715-1.151.588-2.697.882-4.638.882h-7.108v.102c0 1.583-.486 2.669-1.456 3.257a4.555 4.555 0 01-1.693.577c-.632.09-1.275.136-1.929.136h-.576v-4.072h-7.109c-1.94 0-3.486-.294-4.637-.882-1.151-.611-1.727-1.516-1.727-2.715v-5.768zm19.127 5.768h7.785v-5.768h-7.785v5.768zm-13.44 0h7.786v-5.768h-7.786v5.768zM274 26.573c0 .61-.135 1.13-.406 1.56a3.58 3.58 0 01-1.117 1.052c-.452.272-.993.475-1.625.611a9.664 9.664 0 01-2.031.204h-12.526a7.78 7.78 0 01-1.963-.238 6.673 6.673 0 01-1.625-.712 4.13 4.13 0 01-1.083-1.086 2.866 2.866 0 01-.372-1.46V16.462c0-.498.124-.962.372-1.391a3.422 3.422 0 011.083-1.12 5.3 5.3 0 011.625-.713 7.78 7.78 0 011.963-.237h12.526c1.534 0 2.776.305 3.723.916.971.588 1.456 1.459 1.456 2.613v10.044zm-5.653-10.01h-11.442v9.942h11.442v-9.942z" fill="#2B2E34"/><path d="M65.862 52.143c-1.11 0-2.071-.312-2.886-.936-.806-.624-1.317-1.378-1.534-2.262h1.274c.217.598.607 1.092 1.17 1.482.572.381 1.23.572 1.976.572.927 0 1.72-.29 2.379-.871.659-.59 1.049-1.335 1.17-2.236h-4.758v-1.118h4.745c-.139-.884-.533-1.608-1.183-2.171-.65-.572-1.434-.858-2.353-.858-.745 0-1.404.195-1.976.585a2.963 2.963 0 00-1.17 1.482h-1.274c.217-.884.728-1.638 1.534-2.262.806-.633 1.768-.95 2.886-.95 1.36 0 2.496.46 3.406 1.379.919.91 1.378 2.04 1.378 3.393 0 1.352-.46 2.487-1.378 3.406-.91.91-2.045 1.365-3.406 1.365zM72.285 52v-6.5h1.118v2.678h3.55V45.5h1.117V52h-1.118v-2.808h-3.549V52h-1.118zm10.666.13c-.945 0-1.73-.32-2.353-.962-.615-.642-.923-1.448-.923-2.418 0-.98.299-1.786.897-2.418.607-.642 1.408-.962 2.405-.962 1.005 0 1.794.355 2.366 1.066.572.71.823 1.581.754 2.613h-5.291a2.06 2.06 0 00.65 1.482c.416.39.919.585 1.508.585.884 0 1.512-.364 1.885-1.092h1.144c-.165.606-.516 1.11-1.053 1.508-.537.398-1.2.598-1.99.598zm1.274-5.304a1.883 1.883 0 00-1.287-.468c-.503 0-.953.151-1.352.455-.39.303-.633.754-.728 1.352h4.056c-.104-.59-.334-1.036-.69-1.34zm4.603 7.89H87.71V45.5h1.118v1c.226-.329.542-.597.95-.805a2.856 2.856 0 011.338-.325c.902 0 1.656.33 2.262.988.616.658.923 1.456.923 2.392 0 .936-.307 1.733-.923 2.392-.606.658-1.36.988-2.262.988-.476 0-.923-.104-1.339-.312a2.601 2.601 0 01-.949-.82v3.719zm.533-4.29c.416.451.945.677 1.586.677.642 0 1.17-.226 1.586-.676.416-.45.624-1.01.624-1.677 0-.668-.208-1.227-.624-1.677-.416-.45-.944-.676-1.586-.676-.641 0-1.17.225-1.586.676-.416.45-.624 1.01-.624 1.677s.208 1.226.624 1.677zM95.911 52v-6.5h4.07v1.027h-2.952V52h-1.118zm8.028.13c-.979 0-1.794-.325-2.444-.975-.641-.659-.962-1.46-.962-2.405 0-.945.321-1.742.962-2.392.65-.659 1.465-.988 2.444-.988.971 0 1.777.33 2.418.988.65.65.975 1.447.975 2.392 0 .944-.325 1.746-.975 2.405-.641.65-1.447.975-2.418.975zm-1.638-1.716c.425.45.971.676 1.638.676.667 0 1.209-.226 1.625-.676.416-.45.624-1.006.624-1.664 0-.659-.208-1.214-.624-1.664-.416-.45-.958-.676-1.625-.676s-1.213.225-1.638.676c-.416.45-.624 1.005-.624 1.664 0 .658.208 1.213.624 1.664zm9.522 1.716c-.98 0-1.79-.325-2.431-.975-.642-.659-.962-1.46-.962-2.405 0-.945.32-1.742.962-2.392.641-.659 1.451-.988 2.431-.988.806 0 1.503.225 2.093.676a3.184 3.184 0 011.183 1.742h-1.196a2.067 2.067 0 00-.78-1.014c-.364-.252-.798-.377-1.3-.377-.668 0-1.214.225-1.638.676-.416.45-.624 1.01-.624 1.677s.208 1.226.624 1.677c.424.45.97.676 1.638.676.502 0 .936-.126 1.3-.377.364-.252.624-.59.78-1.014h1.196a3.179 3.179 0 01-1.17 1.755c-.59.442-1.292.663-2.106.663zm7.876 0c-1.022 0-1.841-.338-2.457-1.014-.606-.676-.91-1.565-.91-2.665v-.663c0-1.595.286-2.787.858-3.575.572-.798 1.508-1.322 2.808-1.573l2.418-.442v1.066l-2.171.403c-.927.164-1.599.476-2.015.936-.407.46-.663 1.135-.767 2.028.564-.754 1.361-1.131 2.392-1.131.98 0 1.764.312 2.353.936.598.624.897 1.386.897 2.288 0 .953-.325 1.76-.975 2.418-.641.658-1.451.988-2.431.988zm-1.612-1.703c.416.442.954.663 1.612.663.659 0 1.201-.221 1.625-.663.425-.442.637-1.01.637-1.703 0-.65-.212-1.179-.637-1.586-.416-.416-.949-.624-1.599-.624-.667 0-1.213.212-1.638.637-.416.416-.624.94-.624 1.573 0 .693.208 1.26.624 1.703zm9.386 1.703c-.944 0-1.729-.32-2.353-.962-.615-.642-.923-1.448-.923-2.418 0-.98.299-1.786.897-2.418.607-.642 1.409-.962 2.405-.962 1.006 0 1.794.355 2.366 1.066.572.71.824 1.581.754 2.613h-5.291c.018.59.234 1.083.65 1.482.416.39.919.585 1.508.585.884 0 1.513-.364 1.885-1.092h1.144c-.164.606-.515 1.11-1.053 1.508-.537.398-1.2.598-1.989.598zm1.274-5.304a1.882 1.882 0 00-1.287-.468c-.502 0-.953.151-1.352.455-.39.303-.632.754-.728 1.352h4.056c-.104-.59-.333-1.036-.689-1.34zm4.604 7.89h-1.118V45.5h1.118v1c.225-.329.541-.597.949-.805a2.855 2.855 0 011.339-.325c.901 0 1.655.33 2.262.988.615.658.923 1.456.923 2.392 0 .936-.308 1.733-.923 2.392-.607.658-1.361.988-2.262.988-.477 0-.923-.104-1.339-.312a2.592 2.592 0 01-.949-.82v3.719zm.533-4.29c.416.451.944.677 1.586.677.641 0 1.17-.226 1.586-.676.416-.45.624-1.01.624-1.677 0-.668-.208-1.227-.624-1.677-.416-.45-.945-.676-1.586-.676-.642 0-1.17.225-1.586.676-.416.45-.624 1.01-.624 1.677s.208 1.226.624 1.677zm9.319 1.704c-.945 0-1.729-.32-2.353-.962-.615-.642-.923-1.448-.923-2.418 0-.98.299-1.786.897-2.418.607-.642 1.408-.962 2.405-.962 1.005 0 1.794.355 2.366 1.066.572.71.823 1.581.754 2.613h-5.291c.017.59.234 1.083.65 1.482.416.39.919.585 1.508.585.884 0 1.512-.364 1.885-1.092h1.144c-.165.606-.516 1.11-1.053 1.508-.537.398-1.2.598-1.989.598zm1.274-5.304a1.882 1.882 0 00-1.287-.468c-.503 0-.953.151-1.352.455-.39.303-.633.754-.728 1.352h4.056c-.104-.59-.334-1.036-.689-1.34zM147.962 52v-6.5h4.069v1.027h-2.951V52h-1.118zm7.832.13c-.901 0-1.659-.33-2.275-.988-.606-.659-.91-1.456-.91-2.392 0-.936.304-1.734.91-2.392a2.992 2.992 0 012.275-.988c.477 0 .919.108 1.326.325.416.208.737.476.962.806V45.5h1.118V52h-1.118v-1.001c-.225.33-.546.602-.962.819a2.871 2.871 0 01-1.326.312zm.169-1.027c.642 0 1.17-.226 1.586-.676.416-.45.624-1.01.624-1.677 0-.668-.208-1.227-.624-1.677-.416-.45-.944-.676-1.586-.676-.65 0-1.183.225-1.599.676-.416.45-.624 1.01-.624 1.677s.208 1.226.624 1.677c.416.45.949.676 1.599.676zm10.932 1.027c-.858 0-1.586-.278-2.184-.832-.589-.555-.936-1.257-1.04-2.106h-1.248V52h-1.118v-6.5h1.118v2.69h1.261c.13-.823.485-1.499 1.066-2.027.589-.529 1.304-.793 2.145-.793.945 0 1.725.325 2.34.975.615.65.923 1.451.923 2.405 0 .953-.308 1.755-.923 2.405-.615.65-1.395.975-2.34.975zm-1.521-1.716c.399.442.906.663 1.521.663.615 0 1.122-.221 1.521-.663.399-.45.598-1.006.598-1.664 0-.659-.199-1.21-.598-1.651-.399-.45-.906-.676-1.521-.676-.615 0-1.122.22-1.521.663-.39.442-.585.996-.585 1.664 0 .658.195 1.213.585 1.664zm15.908.559v2.665h-1.053V52h-8.476v-6.5h1.118v5.473h2.587V45.5h1.118v5.473h2.587V45.5h1.118v5.473h1.001zM183.786 52h-1.001v-6.5h1.118v4.77l3.666-4.77h.988V52h-1.105v-4.771l-3.666 4.77zm9.665.13c-.945 0-1.729-.32-2.353-.962-.615-.642-.923-1.448-.923-2.418 0-.98.299-1.786.897-2.418.607-.642 1.408-.962 2.405-.962 1.005 0 1.794.355 2.366 1.066.572.71.823 1.581.754 2.613h-5.291c.017.59.234 1.083.65 1.482.416.39.919.585 1.508.585.884 0 1.512-.364 1.885-1.092h1.144c-.165.606-.516 1.11-1.053 1.508-.537.398-1.2.598-1.989.598zm1.274-5.304a1.882 1.882 0 00-1.287-.468c-.503 0-.953.151-1.352.455-.39.303-.633.754-.728 1.352h4.056c-.104-.59-.334-1.036-.689-1.34zM205.387 52v-5.473h-2.067V45.5h5.343v1.027h-2.158V52h-1.118zm7.132.13c-.944 0-1.729-.32-2.353-.962-.615-.642-.923-1.448-.923-2.418 0-.98.299-1.786.897-2.418.607-.642 1.409-.962 2.405-.962 1.006 0 1.794.355 2.366 1.066.572.71.824 1.581.754 2.613h-5.291c.018.59.234 1.083.65 1.482.416.39.919.585 1.508.585.884 0 1.513-.364 1.885-1.092h1.144c-.164.606-.515 1.11-1.053 1.508-.537.398-1.2.598-1.989.598zm1.274-5.304a1.882 1.882 0 00-1.287-.468c-.502 0-.953.151-1.352.455-.39.303-.632.754-.728 1.352h4.056c-.104-.59-.333-1.036-.689-1.34zm7.6 5.174l-1.976-2.457L217.441 52h-1.391l2.665-3.29-2.444-3.21h1.352l1.794 2.353 1.781-2.353h1.365l-2.457 3.21 2.665 3.29h-1.378zm2.525 0v-6.5h1.118v2.678h3.549V45.5h1.118V52h-1.118v-2.808h-3.549V52h-1.118zm10.783.13c-.98 0-1.794-.325-2.444-.975-.642-.659-.962-1.46-.962-2.405 0-.945.32-1.742.962-2.392.65-.659 1.464-.988 2.444-.988.97 0 1.776.33 2.418.988.65.65.975 1.447.975 2.392 0 .944-.325 1.746-.975 2.405-.642.65-1.448.975-2.418.975zm-1.638-1.716c.424.45.97.676 1.638.676.667 0 1.209-.226 1.625-.676.416-.45.624-1.006.624-1.664 0-.659-.208-1.214-.624-1.664-.416-.45-.958-.676-1.625-.676-.668 0-1.214.225-1.638.676-.416.45-.624 1.005-.624 1.664 0 .658.208 1.213.624 1.664zm6.339 1.677c-.295 0-.49-.013-.585-.04v-1c.061.017.199.026.416.026.269 0 .468-.091.598-.273.13-.19.195-.525.195-1.001V45.5h5.018V52h-1.118v-5.473h-2.782v3.51c0 .667-.16 1.178-.481 1.534-.321.346-.741.52-1.261.52zm10.647.039c-.979 0-1.794-.325-2.444-.975-.641-.659-.962-1.46-.962-2.405 0-.945.321-1.742.962-2.392.65-.659 1.465-.988 2.444-.988.971 0 1.777.33 2.418.988.65.65.975 1.447.975 2.392 0 .944-.325 1.746-.975 2.405-.641.65-1.447.975-2.418.975zm-1.638-1.716c.425.45.971.676 1.638.676.668 0 1.209-.226 1.625-.676.416-.45.624-1.006.624-1.664 0-.659-.208-1.214-.624-1.664-.416-.45-.957-.676-1.625-.676-.667 0-1.213.225-1.638.676-.416.45-.624 1.005-.624 1.664 0 .658.208 1.213.624 1.664zM255.047 52v-6.5h4.069v1.027h-2.951V52h-1.118zm6.346 0h-1.001v-6.5h1.118v4.77l3.666-4.77h.988V52h-1.105v-4.771l-3.666 4.77zm7.896 0h-1.001v-6.5h1.118v4.77l3.666-4.77h.988V52h-1.105v-4.771l-3.666 4.77z" fill="#555"/><path d="M22.79 61.993c-1.746-5.274 4.79-18.65 8.277-24.678-5.634 9.155-8.495 15.588-9.712 20.001-1.679 6.09 4.92 7.643 7.73 1.987.524-1.053.936-2.051 1.212-2.836l-3.786 1.508c-1.129 2.21-2.951 3.6-3.721 4.018z" fill="url(#arpaint0_linear_1_1122)"/><path d="M22.791 61.995c1.381-.76 3.02-2.605 3.71-4 1.632-.633 2.038-.734 2.351-.797-.89 2.164-2.222 4.044-3.387 5.241-.876.9-2.28.748-2.674-.444z" fill="url(#arpaint1_linear_1_1122)"/><path d="M41.675 31.047c-1.319-5.037-5.009-6.736-5.2-4.848-1.521 4.281-3.93 8.457-4.945 10.01-8.403 15.967-4.65 20.839-2.917 21.09 15.168-5.942 15.07-19.998 13.063-26.252z" fill="url(#arpaint2_linear_1_1122)"/><path d="M18.586 23.118c.724-4.565.293-14.254-6.872-19.977-.445.949-.42 3.783 1.968 9.047l-2.286 3.732C9.26 12.126 5.492 2.383 8.793.168c3.019-1.504 12.426 7.195 9.793 22.95z" fill="url(#arpaint3_radial_1_1122)"/><path d="M9.347 3.021c.742-.497 2.23-.118 2.478.193-.693 2.484.964 6.95 1.912 9l-1.779 2.93C8.496 7.095 8.543 3.768 9.347 3.022z" fill="url(#arpaint4_linear_1_1122)"/><path d="M27.462 28.872C28.474 14.44 21.335 4.755 17.64 1.717c17.286 9.655 23.128 23.383 23.888 29.04-2.332-7.945-10.35-4.567-14.066-1.885z" fill="url(#arpaint5_linear_1_1122)"/><path opacity=".25" d="M38.405 26.361c-3.02-8.619-12.291-16.876-16.55-19.803 5.601 8.282 6.02 17.707 5.664 22.17 4.53-3.052 7.929-3.737 10.886-2.367z" fill="url(#arpaint6_linear_1_1122)"/><path d="M36.799 26.698c4.145 5.503 8.584 18.828-6.825 28.104 1.68-8.675 5.396-26.44 6.825-28.104z" fill="url(#arpaint7_linear_1_1122)"/><path d="M28.622 57.298c-3.09-2.961.506-14.963 2.674-20.642-7.417 13.528-9.005 19.904-8.74 22.064 3.735-.383 3.555-.657 6.066-1.422z" fill="#27569F"/><path d="M16.546 57.924c-.714-10.04 4.075-21.253 6.559-25.605-16.812 7.972-21.482 3.322-21.715 0-3.974 16.953 8.448 24.134 15.156 25.605z" fill="url(#arpaint8_linear_1_1122)"/><path d="M16.537 56.207c-.19-9.405 4.147-19.834 6.568-23.888-13.325 5.894-18.25 4.828-20.397 2.508-1.819 13.743 8.504 19.959 13.83 21.38z" fill="url(#arpaint9_linear_1_1122)"/><path d="M1.403 32.43C3.39 25.34 8.41 17.994 12.425 15.145c5.403-1.722 6.33 4.116 6.308 7.282-.816 8.004-4.588 12.685-6.372 13.93-7.2 2.217-10.767-.506-10.958-3.925z" fill="url(#arpaint10_linear_1_1122)"/><path d="M9.99 17.32l6.274-8.577c2.608 3.978 2.85 10.6 2.467 13.474-.89-9.306-6.137-7.425-8.741-4.897z" fill="#148CCC"/><defs><linearGradient id="arpaint0_linear_1_1122" x1="25.837" y1="37.315" x2="23.041" y2="65.961" gradientUnits="userSpaceOnUse"><stop stop-color="#1EA99E"/><stop offset=".359" stop-color="#D0FEFA"/><stop offset="1" stop-color="#1EA99E"/></linearGradient><linearGradient id="arpaint1_linear_1_1122" x1="27.877" y1="57.617" x2="22.413" y2="64.728" gradientUnits="userSpaceOnUse"><stop stop-color="#188C83"/><stop offset="1" stop-color="#fff" stop-opacity="0"/></linearGradient><linearGradient id="arpaint2_linear_1_1122" x1="37.744" y1="26.011" x2="28.733" y2="57.271" gradientUnits="userSpaceOnUse"><stop stop-color="#2D63C8"/><stop offset="1" stop-color="#08A7FA"/></linearGradient><linearGradient id="arpaint4_linear_1_1122" x1="9.718" y1="2.835" x2="12.96" y2="13.449" gradientUnits="userSpaceOnUse"><stop stop-color="#ADFFF8"/><stop offset="1" stop-color="#1EA99E"/></linearGradient><linearGradient id="arpaint5_linear_1_1122" x1="29.616" y1="-1.551" x2="39.423" y2="26.344" gradientUnits="userSpaceOnUse"><stop stop-color="#00AFFF"/><stop offset="1" stop-color="#4268D5"/></linearGradient><linearGradient id="arpaint6_linear_1_1122" x1="32.49" y1="16.709" x2="27.504" y2="21.306" gradientUnits="userSpaceOnUse"><stop stop-color="#fff" stop-opacity=".73"/><stop offset="1" stop-color="#fff" stop-opacity="0"/></linearGradient><linearGradient id="arpaint7_linear_1_1122" x1="40.689" y1="42.01" x2="35.344" y2="40.271" gradientUnits="userSpaceOnUse"><stop stop-color="#fff" stop-opacity=".18"/><stop offset="1" stop-color="#fff" stop-opacity="0"/></linearGradient><linearGradient id="arpaint8_linear_1_1122" x1="23.105" y1="32.382" x2="4.51" y2="52.113" gradientUnits="userSpaceOnUse"><stop stop-color="#0D9FF4"/><stop offset="1" stop-color="#2B67CB"/></linearGradient><linearGradient id="arpaint9_linear_1_1122" x1="4.413" y1="46.802" x2="10.876" y2="40.988" gradientUnits="userSpaceOnUse"><stop stop-color="#fff" stop-opacity=".25"/><stop offset="1" stop-color="#fff" stop-opacity="0"/></linearGradient><linearGradient id="arpaint10_linear_1_1122" x1="15.42" y1="15.587" x2="5.518" y2="37.1" gradientUnits="userSpaceOnUse"><stop stop-color="#06AAFC"/><stop offset="1" stop-color="#1B4CAA"/></linearGradient><radialGradient id="arpaint3_radial_1_1122" cx="0" cy="0" r="1" gradientUnits="userSpaceOnUse" gradientTransform="matrix(-4.7929 -9.39484 4.59761 -2.34553 14.221 9.373)"><stop stop-color="#2AAFA4"/><stop offset=".558" stop-color="#D0FDF9"/><stop offset="1" stop-color="#2AAFA4"/></radialGradient></defs></svg><svg fill="none" viewBox="0 0 186 38" id="logo-mini" xmlns="http://www.w3.org/2000/svg"><path d="M36.396 18.29h7.816V16.02H31.839c0-.83.335-1.463 1.004-1.903.686-.438 1.593-.658 2.72-.658h9.09c.49 0 .955.065 1.396.195.441.13.825.309 1.152.537.343.211.612.471.808.78.196.31.294.65.294 1.025v7.146c0 .39-.098.74-.294 1.05a2.718 2.718 0 01-.808.804 4.4 4.4 0 01-1.152.512c-.44.114-.914.171-1.42.171h-9.066a7.037 7.037 0 01-1.47-.146 4.197 4.197 0 01-1.176-.44 2.473 2.473 0 01-.809-.78c-.18-.325-.27-.707-.27-1.146h12.374v-2.293h-7.816V18.29zM62.475 25.68c-.506 0-.931-.04-1.274-.122a5.596 5.596 0 01-.882-.293 3.72 3.72 0 01-.662-.39 13.034 13.034 0 00-.588-.415l-5.194-4.414v3.293c0 .439-.106.813-.318 1.122a2.141 2.141 0 01-.809.707 4.16 4.16 0 01-1.2.39 7.695 7.695 0 01-1.397.122h-.367V13.46h4.091v5.39l5.341-5.39h4.533l-5.586 5.732 7.448 6.488h-3.136zM83.547 23.216c0 .44-.098.814-.294 1.122a2.582 2.582 0 01-.809.757 3.846 3.846 0 01-1.176.439 7.037 7.037 0 01-1.47.146h-9.065c-.506 0-.98-.057-1.421-.17a4.84 4.84 0 01-1.176-.513 2.973 2.973 0 01-.784-.78 2.048 2.048 0 01-.27-1.05v-7.22c0-.357.09-.69.27-1 .196-.324.457-.593.784-.804a3.847 3.847 0 011.176-.512c.441-.114.915-.171 1.421-.171h9.065c1.111 0 2.01.22 2.695.658.703.423 1.054 1.05 1.054 1.879v7.22zm-4.092-7.195h-8.28v7.147h8.28V16.02zM97.4 25.68v-4.805H89.12v4.805h-4.092v-9.732c0-.358.098-.683.294-.976.196-.309.458-.569.784-.78a4.323 4.323 0 011.176-.537c.441-.13.915-.195 1.421-.195h.417v4.878h8.306V13.46h4.067v12.22H97.4zM125.036 23.216c0 .52-.139.944-.417 1.269a2.603 2.603 0 01-1.004.756c-.392.179-.833.3-1.323.366-.474.049-.923.073-1.348.073h-8.575v-.244c0-.569.147-1.008.441-1.317.31-.325.662-.553 1.054-.683a4.15 4.15 0 011.249-.244c.441-.016.784-.024 1.029-.024h4.802v-2.293h-8.624c-.245 0-.58.016-1.004.049a5.619 5.619 0 01-1.275-.098 2.284 2.284 0 01-1.053-.56c-.294-.293-.441-.74-.441-1.342v-5.44h.343c.261 0 .604.017 1.029.05.441.032.858.113 1.25.243.408.13.759.341 1.053.634.294.293.441.716.441 1.269v2.61h8.281v-4.83h4.092v9.756zM142.98 18.29c0 .861-.416 1.512-1.249 1.95-.833.424-1.952.635-3.357.635h-6.125c0-.26.041-.545.122-.854a2.77 2.77 0 01.417-.854c.196-.243.449-.447.759-.61.311-.178.678-.267 1.103-.267h4.214V16.02h-8.257v6.805c0 1.139-.351 1.919-1.053 2.342-.36.211-.768.35-1.225.415a9.923 9.923 0 01-1.397.097h-.416V13.46h12.716c1.11 0 2.009.22 2.695.658.702.44 1.053 1.074 1.053 1.903v2.268zM144.461 16.021c0-.83.343-1.463 1.029-1.903.702-.438 1.608-.658 2.719-.658h16.097c1.111 0 2.009.22 2.695.658.702.44 1.054 1.074 1.054 1.903v4.147c0 .861-.417 1.512-1.25 1.95-.833.424-1.952.635-3.356.635h-5.146v.073c0 1.139-.351 1.919-1.053 2.342a3.31 3.31 0 01-1.225.415 9.923 9.923 0 01-1.397.097h-.416v-2.927h-5.145c-1.405 0-2.524-.211-3.357-.634-.833-.44-1.249-1.09-1.249-1.951V16.02zm13.842 4.147h5.636V16.02h-5.636v4.147zm-9.726 0h5.635V16.02h-5.635v4.147zM186 23.216c0 .44-.098.814-.294 1.122a2.584 2.584 0 01-.809.757 3.832 3.832 0 01-1.176.439 7.032 7.032 0 01-1.47.146h-9.065c-.506 0-.98-.057-1.421-.17a4.84 4.84 0 01-1.176-.513 2.969 2.969 0 01-.784-.78 2.045 2.045 0 01-.27-1.05v-7.22c0-.357.09-.69.27-1 .196-.324.457-.593.784-.804a3.847 3.847 0 011.176-.512c.441-.114.915-.171 1.421-.171h9.065c1.111 0 2.009.22 2.695.658.703.423 1.054 1.05 1.054 1.879v7.22zm-4.092-7.195h-8.281v7.147h8.281V16.02z" fill="#2B2E34"/><path d="M17.036 21.771c-1.757 3.037-4.897 9.407-4.792 12.8.205.273.47.468.77.58a5.909 5.909 0 001.472-1.82l2.119-.843c-.818 2.318-2.455 3.09-3.591 2.664a4.06 4.06 0 01-.61.428 3.58 3.58 0 01-.16-1.009c-.5-.661-.652-1.776-.11-3.252.86-2.348 2.388-5.464 4.902-9.548z" fill="url(#aspaint0_linear_1_1676)"/><path d="M12.404 35.58c.773-.425 1.69-1.457 2.076-2.237.913-.355 1.14-.411 1.316-.447-.498 1.21-1.244 2.263-1.896 2.933-.49.503-1.276.419-1.496-.249z" fill="url(#aspaint1_linear_1_1676)"/><path d="M22.971 18.264c-.738-2.818-2.803-3.77-2.91-2.713-.85 2.396-2.2 4.732-2.767 5.601-4.701 8.935-2.602 11.66-1.632 11.801 8.487-3.325 8.433-11.19 7.309-14.69z" fill="url(#aspaint2_linear_1_1676)"/><path d="M10.051 13.827c.405-2.554.164-7.976-3.845-11.178-.249.531-.234 2.117 1.101 5.062L6.028 9.8C4.833 7.676 2.725 2.225 4.572.986c1.689-.842 6.953 4.026 5.48 12.841z" fill="url(#aspaint3_radial_1_1676)"/><path d="M4.882 2.583c.415-.279 1.248-.067 1.386.107-.387 1.39.54 3.89 1.07 5.037l-.995 1.64C4.405 4.86 4.432 3 4.882 2.582z" fill="url(#aspaint4_linear_1_1676)"/><path d="M15.018 17.047C15.585 8.97 11.59 3.553 9.522 1.853c9.672 5.402 12.941 13.084 13.366 16.249-1.304-4.446-5.79-2.556-7.87-1.055z" fill="url(#aspaint5_linear_1_1676)"/><path opacity=".25" d="M21.141 15.642c-1.69-4.823-6.877-9.443-9.26-11.081 3.134 4.635 3.368 9.908 3.169 12.405 2.535-1.707 4.436-2.09 6.091-1.324z" fill="url(#aspaint6_linear_1_1676)"/><path d="M20.242 15.83c2.32 3.08 4.804 10.536-3.818 15.725.94-4.853 3.02-14.794 3.819-15.724z" fill="url(#aspaint7_linear_1_1676)"/><path d="M15.667 32.952c-1.73-1.657.283-8.372 1.496-11.55-4.15 7.57-5.04 11.137-4.89 12.346 2.09-.214 1.989-.367 3.394-.796z" fill="#27569F"/><path d="M8.91 33.303c-.4-5.618 2.28-11.892 3.67-14.327-9.407 4.46-12.02 1.858-12.15 0-2.224 9.485 4.727 13.503 8.48 14.327z" fill="url(#aspaint8_linear_1_1676)"/><path d="M8.905 32.342c-.106-5.262 2.32-11.098 3.675-13.366-7.456 3.297-10.212 2.7-11.413 1.403-1.018 7.69 4.758 11.168 7.738 11.963z" fill="url(#aspaint9_linear_1_1676)"/><path d="M.437 19.038C1.55 15.07 4.36 10.96 6.605 9.365c3.023-.963 3.541 2.303 3.53 4.075-.457 4.478-2.568 7.098-3.566 7.795-4.028 1.24-6.025-.284-6.132-2.197z" fill="url(#aspaint10_linear_1_1676)"/><path d="M5.241 10.583l3.511-4.799c1.46 2.226 1.595 5.931 1.38 7.539-.497-5.207-3.433-4.154-4.89-2.74z" fill="#148CCC"/><defs><linearGradient id="aspaint0_linear_1_1676" x1="14.109" y1="21.771" x2="12.544" y2="37.8" gradientUnits="userSpaceOnUse"><stop stop-color="#1EA99E"/><stop offset=".359" stop-color="#D0FEFA"/><stop offset="1" stop-color="#1EA99E"/></linearGradient><linearGradient id="aspaint1_linear_1_1676" x1="15.25" y1="33.13" x2="12.193" y2="37.11" gradientUnits="userSpaceOnUse"><stop stop-color="#188C83"/><stop offset="1" stop-color="#fff" stop-opacity="0"/></linearGradient><linearGradient id="aspaint2_linear_1_1676" x1="20.771" y1="15.446" x2="15.729" y2="32.937" gradientUnits="userSpaceOnUse"><stop stop-color="#2D63C8"/><stop offset="1" stop-color="#08A7FA"/></linearGradient><linearGradient id="aspaint4_linear_1_1676" x1="5.089" y1="2.478" x2="6.904" y2="8.417" gradientUnits="userSpaceOnUse"><stop stop-color="#ADFFF8"/><stop offset="1" stop-color="#1EA99E"/></linearGradient><linearGradient id="aspaint5_linear_1_1676" x1="16.223" y1=".024" x2="21.711" y2="15.632" gradientUnits="userSpaceOnUse"><stop stop-color="#00AFFF"/><stop offset="1" stop-color="#4268D5"/></linearGradient><linearGradient id="aspaint6_linear_1_1676" x1="17.832" y1="10.241" x2="15.041" y2="12.814" gradientUnits="userSpaceOnUse"><stop stop-color="#fff" stop-opacity=".73"/><stop offset="1" stop-color="#fff" stop-opacity="0"/></linearGradient><linearGradient id="aspaint7_linear_1_1676" x1="22.419" y1="24.398" x2="19.429" y2="23.425" gradientUnits="userSpaceOnUse"><stop stop-color="#fff" stop-opacity=".18"/><stop offset="1" stop-color="#fff" stop-opacity="0"/></linearGradient><linearGradient id="aspaint8_linear_1_1676" x1="12.58" y1="19.011" x2="2.175" y2="30.051" gradientUnits="userSpaceOnUse"><stop stop-color="#0D9FF4"/><stop offset="1" stop-color="#2B67CB"/></linearGradient><linearGradient id="aspaint9_linear_1_1676" x1="2.121" y1="27.079" x2="5.737" y2="23.826" gradientUnits="userSpaceOnUse"><stop stop-color="#fff" stop-opacity=".25"/><stop offset="1" stop-color="#fff" stop-opacity="0"/></linearGradient><linearGradient id="aspaint10_linear_1_1676" x1="8.28" y1="9.613" x2="2.74" y2="21.651" gradientUnits="userSpaceOnUse"><stop stop-color="#06AAFC"/><stop offset="1" stop-color="#1B4CAA"/></linearGradient><radialGradient id="aspaint3_radial_1_1676" cx="0" cy="0" r="1" gradientUnits="userSpaceOnUse" gradientTransform="matrix(-2.68182 -5.2568 2.57255 -1.31242 7.61 6.136)"><stop stop-color="#2AAFA4"/><stop offset=".558" stop-color="#D0FDF9"/><stop offset="1" stop-color="#2AAFA4"/></radialGradient></defs></svg><svg fill="none" viewBox="0 0 23 19" id="mail" xmlns="http://www.w3.org/2000/svg"><path d="M22.143 1.822L11.536 8.964.929 1.822" stroke="#2B2E34" stroke-width="1.7" stroke-linecap="round" stroke-linejoin="round"/><path d="M3.05 1.143h16.971c1.167 0 2.122.904 2.122 2.009v12.053c0 1.105-.955 2.01-2.122 2.01H3.05c-1.167 0-2.121-.905-2.121-2.01V3.152c0-1.105.954-2.01 2.121-2.01z" stroke="#2B2E34" stroke-width="1.7" stroke-linecap="round" stroke-linejoin="round"/></svg><svg fill="none" viewBox="0 0 14 15" id="percent" xmlns="http://www.w3.org/2000/svg"><circle cx="3" cy="3" r="2.25" stroke="#fff" stroke-opacity=".9" stroke-width="1.5"/><circle cx="11" cy="12" r="2.25" stroke="#fff" stroke-opacity=".9" stroke-width="1.5"/><path stroke="#fff" stroke-opacity=".9" stroke-width="1.5" stroke-linecap="round" d="M1.042 12.94L12.94 1.958"/></svg><svg fill="none" viewBox="0 0 22 23" id="phone" xmlns="http://www.w3.org/2000/svg"><path d="M18.8 15.616c-1.299-1.085-2.618-1.742-3.901-.659l-.766.655c-.561.475-1.603 2.696-5.634-1.83-4.03-4.522-1.632-5.226-1.07-5.697l.77-.656c1.277-1.086.795-2.453-.126-3.86l-.555-.852C6.593 1.313 5.586.391 4.306 1.475l-.692.59a6.325 6.325 0 00-2.53 4.196c-.462 2.981.994 6.395 4.33 10.141C8.747 20.15 12.01 22.032 15.1 22c2.568-.027 4.12-1.373 4.604-1.862l.694-.591c1.277-1.084.484-2.187-.816-3.274l-.782-.657z" fill="#fff"/><path d="M18.8 15.616c-1.299-1.085-2.618-1.742-3.901-.659l-.766.655c-.561.475-1.603 2.696-5.634-1.83-4.03-4.522-1.632-5.226-1.07-5.697l.77-.656c1.277-1.086.795-2.453-.126-3.86l-.555-.852C6.593 1.313 5.586.391 4.306 1.475l-.692.59a6.325 6.325 0 00-2.53 4.196c-.462 2.981.994 6.395 4.33 10.141C8.747 20.15 12.01 22.032 15.1 22c2.568-.027 4.12-1.373 4.604-1.862l.694-.591c1.277-1.084.484-2.187-.816-3.274l-.782-.657z" fill="url(#avpaint0_linear_1_1097)"/><path d="M18.8 15.616c-1.299-1.085-2.618-1.742-3.901-.659l-.766.655c-.561.475-1.603 2.696-5.634-1.83-4.03-4.522-1.632-5.226-1.07-5.697l.77-.656c1.277-1.086.795-2.453-.126-3.86l-.555-.852C6.593 1.313 5.586.391 4.306 1.475l-.692.59a6.325 6.325 0 00-2.53 4.196c-.462 2.981.994 6.395 4.33 10.141C8.747 20.15 12.01 22.032 15.1 22c2.568-.027 4.12-1.373 4.604-1.862l.694-.591c1.277-1.084.484-2.187-.816-3.274l-.782-.657z" stroke="#2B2E34" stroke-width="1.7"/><defs><linearGradient id="avpaint0_linear_1_1097" x1="11.023" y1="1" x2="11.023" y2="22" gradientUnits="userSpaceOnUse"><stop stop-color="#fff"/><stop offset="1" stop-color="#fff" stop-opacity="0"/></linearGradient></defs></svg><svg fill="none" viewBox="0 0 17 24" id="point" xmlns="http://www.w3.org/2000/svg"><path d="M.85 8.692C.85 4.35 4.3.85 8.5.85s7.65 3.5 7.65 7.842c0 1.321-.427 2.86-1.124 4.471-.692 1.602-1.626 3.218-2.581 4.68A52.43 52.43 0 018.5 23.1a52.427 52.427 0 01-3.945-5.257c-.955-1.462-1.889-3.078-2.581-4.68C1.277 11.552.85 10.013.85 8.692zM8.57 23.18h0z" stroke="#2B2E34" stroke-width="1.7"/><circle cx="8.5" cy="8.5" r="2.65" stroke="#2B2E34" stroke-width="1.7"/></svg><svg fill="none" viewBox="0 0 19 20" id="search" xmlns="http://www.w3.org/2000/svg"><path d="M8.542 16.333A7.667 7.667 0 108.542 1a7.667 7.667 0 000 15.333zM18.125 18.25l-4.169-4.169" stroke="#9F9EAC" stroke-width="1.6" stroke-linecap="round" stroke-linejoin="round"/></svg><svg fill="none" viewBox="0 0 23 22" id="tap" xmlns="http://www.w3.org/2000/svg"><path d="M6.988 15.58v-2.412m0 0V9.206H1.586v12.001h5.402c.594-2.182 3.538-6.753 10.567-7.58.047-.045.732 1.283 1.069 1.953l2.79-1.091-1.366-2.929c-.91-.574-4.796-1.056-13.06 1.608zM1.828 6.74V3.363L12.78 1v2.363L6.758 4.808V6.74" stroke="#2B2E34" stroke-width="1.2" stroke-linecap="round" stroke-linejoin="round"/></svg><svg fill="none" viewBox="0 0 28 27" id="user" xmlns="http://www.w3.org/2000/svg"><path d="M24 24v-2.333c0-1.238-.527-2.425-1.465-3.3C21.598 17.492 20.326 17 19 17H9c-1.326 0-2.598.492-3.536 1.367-.937.875-1.464 2.062-1.464 3.3V24M14 10.486a4 4 0 100-8 4 4 0 000 8z" stroke="#2B2E34" stroke-width="1.9" stroke-linecap="round" stroke-linejoin="round"/></svg><svg fill="none" viewBox="0 0 21 13" id="vk" xmlns="http://www.w3.org/2000/svg"><path d="M20.478 1.14c.146-.484 0-.839-.69-.839h-2.284c-.581 0-.847.307-.993.645 0 0-1.161 2.832-2.807 4.669-.531.534-.774.703-1.063.703-.145 0-.356-.17-.356-.653V1.14c0-.582-.167-.84-.652-.84h-3.59c-.362 0-.58.269-.58.525 0 .55.822.677.907 2.227v3.363c0 .736-.133.87-.424.87-.774 0-2.657-2.842-3.775-6.096C3.953.557 3.733.302 3.15.302H.867C.214.302.083.61.083.947c0 .606.774 3.606 3.606 7.574 1.887 2.71 4.544 4.178 6.965 4.178 1.451 0 1.63-.326 1.63-.889V9.762c0-.652.139-.783.598-.783.338 0 .919.171 2.274 1.476 1.548 1.548 1.804 2.243 2.674 2.243h2.284c.652 0 .978-.326.79-.97-.205-.64-.945-1.573-1.926-2.676-.533-.63-1.33-1.306-1.573-1.645-.338-.436-.24-.629 0-1.016.001 0 2.784-3.918 3.073-5.25z" fill="#7E838C"/></svg><svg fill="none" viewBox="0 0 23 18" id="warm" xmlns="http://www.w3.org/2000/svg"><path d="M21.445.633a.664.664 0 00-.657.672v2.627h-.734v-.6c0-1.488-1.184-2.699-2.638-2.699-.79 0-1.498.36-1.983.924a2.607 2.607 0 00-1.982-.924c-.79 0-1.498.36-1.982.924A2.608 2.608 0 009.487.633c-.79 0-1.498.36-1.982.924A2.607 2.607 0 005.522.633c-1.454 0-2.638 1.211-2.638 2.7v.599H1.557c-.362 0-.657.3-.657.671 0 .37.295.672.657.672h1.326V15.3c0 1.489 1.184 2.7 2.638 2.7.79 0 1.499-.359 1.983-.924A2.607 2.607 0 009.486 18c.79 0 1.498-.359 1.982-.924A2.607 2.607 0 0013.45 18c.79 0 1.498-.359 1.982-.924a2.607 2.607 0 001.983.924c1.455 0 2.639-1.211 2.639-2.7V5.275h1.39a.664.664 0 00.656-.671V1.305a.663.663 0 00-.655-.672zM18.74 5.275v10.026c0 .748-.594 1.356-1.325 1.356s-1.326-.608-1.326-1.356V3.333c0-.748.595-1.356 1.326-1.356.73 0 1.325.608 1.325 1.356v1.942zM14.777 15.3c0 .748-.595 1.357-1.326 1.357-.731 0-1.326-.608-1.326-1.357V3.333c0-.748.595-1.356 1.326-1.356.73 0 1.325.608 1.325 1.356V15.3zm-3.965 0c0 .748-.595 1.357-1.325 1.357-.731 0-1.326-.608-1.326-1.357V3.333c0-.748.595-1.356 1.326-1.356.73 0 1.325.608 1.325 1.356V15.3zm-3.965 0c0 .748-.595 1.357-1.325 1.357-.731 0-1.326-.608-1.326-1.357V3.333c0-.748.595-1.356 1.326-1.356.73 0 1.325.608 1.325 1.356V15.3z" fill="#2B2E34"/></svg></svg>