<svg width="22" height="24" viewBox="0 0 22 24" fill="none" xmlns="http://www.w3.org/2000/svg">
<path d="M16.1158 7.6427V5.50504C16.1158 4.83892 15.9846 4.17932 15.7297 3.56391C15.4748 2.94849 15.1012 2.38931 14.6301 1.9183C14.1591 1.44728 13.6 1.07365 12.9845 0.818732C12.3691 0.563819 11.7095 0.432617 11.0434 0.432617C10.3773 0.432617 9.71769 0.563819 9.10227 0.818732C8.48686 1.07365 7.92768 1.44728 7.45666 1.9183C6.98564 2.38931 6.61201 2.94849 6.3571 3.56391C6.10218 4.17932 5.97098 4.83892 5.97098 5.50504V10.5775C5.97098 10.7696 6.04733 10.954 6.18322 11.0899C6.31912 11.2257 6.50343 11.3021 6.69561 11.3021C6.8878 11.3021 7.07211 11.2257 7.20801 11.0899C7.3439 10.954 7.42025 10.7696 7.42025 10.5775V9.09197H13.2173V7.6427H7.42025V5.50504C7.42025 4.54412 7.80197 3.62255 8.48144 2.94308C9.16092 2.26361 10.0825 1.88188 11.0434 1.88188C12.0043 1.88188 12.9259 2.26361 13.6054 2.94308C14.2848 3.62255 14.6666 4.54412 14.6666 5.50504V10.5412C14.6666 10.7334 14.7429 10.9177 14.8788 11.0536C15.0147 11.1895 15.199 11.2659 15.3912 11.2659C15.5834 11.2659 15.7677 11.1895 15.9036 11.0536C16.0395 10.9177 16.1158 10.7334 16.1158 10.5412V9.09197H19.739V22.1353H2.34782V9.09197H4.52172V7.6427H0.89856V22.2006C0.89856 22.5676 1.04438 22.9197 1.30394 23.1792C1.5635 23.4388 1.91553 23.5846 2.28261 23.5846H19.8042C20.1713 23.5846 20.5233 23.4388 20.7829 23.1792C21.0424 22.9197 21.1882 22.5676 21.1882 22.2006V7.6427H16.1158Z" fill="#2B2E34"/>
</svg>
