<svg width="283" height="66" viewBox="0 0 283 66" fill="none" xmlns="http://www.w3.org/2000/svg">
<path d="M27.7895 61.9934C26.0441 56.7186 32.5809 43.3433 36.0674 37.3149C30.4326 46.4696 27.5723 52.9025 26.3552 57.3161C24.6761 63.4054 31.2742 64.9591 34.0855 59.3027C34.6086 58.2504 35.0208 57.2519 35.2974 56.4674L31.5114 57.9745C30.382 60.1849 28.5595 61.5748 27.7895 61.9934Z" fill="url(#paint0_linear_1_987)"/>
<path d="M27.791 61.9951C29.172 61.2345 30.8107 59.3902 31.5012 57.9959C33.1334 57.3621 33.5385 57.2614 33.8524 57.198C32.9622 59.3617 31.63 61.2415 30.4646 62.439C29.589 63.3387 28.1846 63.1872 27.791 61.9951Z" fill="url(#paint1_linear_1_987)"/>
<path d="M46.6754 31.0471C45.3565 26.0107 41.666 24.3108 41.4758 26.1995C39.9539 30.4805 37.5443 34.6566 36.5298 36.2095C28.1272 52.1766 31.8797 57.048 33.6129 57.2998C48.7806 51.3568 48.6834 37.3008 46.6754 31.0471Z" fill="url(#paint2_linear_1_987)"/>
<path d="M23.5857 23.1182C23.5605 23.277 23.534 23.4296 23.5062 23.5756C23.5338 23.4225 23.5603 23.27 23.5857 23.1182C24.3097 18.5526 23.8791 8.86354 16.7136 3.14098C16.2692 4.08996 16.2946 6.92423 18.6816 12.1879L16.3962 15.9205C14.259 12.1246 10.4923 2.3818 13.7934 0.167525C16.8115 -1.33634 26.2191 7.36297 23.5857 23.1182Z" fill="url(#paint3_radial_1_987)"/>
<path d="M14.3467 3.02122C15.0887 2.52427 16.5774 2.90297 16.8247 3.21357C16.1321 5.69834 17.7889 10.1649 18.737 12.2149L16.9583 15.1446C13.4955 7.09401 13.5428 3.76665 14.3467 3.02122Z" fill="url(#paint4_linear_1_987)"/>
<path d="M32.4615 28.8717C33.4753 14.4396 26.3364 4.75539 22.6402 1.71729C39.9256 11.3722 45.7677 25.1002 46.528 30.7574C44.1963 22.8122 36.1788 26.1898 32.4615 28.8717Z" fill="url(#paint5_linear_1_987)"/>
<path opacity="0.25" d="M43.4053 26.3615C40.3849 17.7425 31.1136 9.48461 26.8556 6.55762C32.4561 14.8404 32.8756 24.2649 32.519 28.728C37.0497 25.6765 40.4478 24.9914 43.4053 26.3615Z" fill="url(#paint6_linear_1_987)"/>
<path d="M41.7987 26.6981C45.9443 32.2012 50.3833 45.5261 34.9744 54.8015C36.6539 46.1268 40.3701 28.3616 41.7987 26.6981Z" fill="url(#paint7_linear_1_987)"/>
<path d="M33.6221 57.2977C30.5318 54.3369 34.1283 42.3353 36.2959 36.6562C28.8791 50.1839 27.2907 56.5597 27.5566 58.7201C31.2907 58.3372 31.1112 58.0634 33.6221 57.2977Z" fill="#27569F"/>
<path d="M21.5456 57.9244C20.8324 47.8841 25.6212 36.6707 28.1047 32.3191C11.293 40.2908 6.62302 35.6406 6.38952 32.3191C2.41582 49.2715 14.8379 56.4528 21.5456 57.9244Z" fill="url(#paint8_linear_1_987)"/>
<path d="M21.5372 56.2069C21.3478 46.8023 25.684 36.3735 28.1047 32.3191C14.7803 38.2127 9.85475 37.1468 7.7077 34.827C5.88902 48.5704 16.2117 54.7858 21.5372 56.2069Z" fill="url(#paint9_linear_1_987)"/>
<path d="M6.40277 32.4307C8.39063 25.3387 13.4112 17.9934 17.4252 15.144C22.8281 13.4216 23.7541 19.2599 23.7328 22.4259C22.9173 30.4298 19.1455 35.1113 17.3615 36.3566C10.1619 38.5729 6.59391 35.8501 6.40277 32.4307Z" fill="url(#paint10_linear_1_987)"/>
<path d="M14.9897 17.3197L21.2641 8.74353C23.8723 12.7209 24.1138 19.343 23.731 22.2168C22.8416 12.9106 17.5938 14.7924 14.9897 17.3197Z" fill="#148CCC"/>
<path d="M74.2964 20.7186H85.0952V17.5629H68C68 16.4092 68.4626 15.5269 69.3879 14.9162C70.3358 14.3054 71.5883 14 73.1455 14H85.7045C86.3816 14 87.0248 14.0905 87.6341 14.2715C88.2434 14.4524 88.7738 14.7013 89.2251 15.018C89.6991 15.312 90.0714 15.674 90.3422 16.1038C90.6131 16.5336 90.7485 17.0087 90.7485 17.5289V27.4711C90.7485 28.014 90.6131 28.5003 90.3422 28.9301C90.0714 29.3599 89.6991 29.7332 89.2251 30.0499C88.7738 30.344 88.2434 30.5815 87.6341 30.7625C87.0248 30.9208 86.3703 31 85.6707 31H73.1455C72.4233 31 71.7463 30.9321 71.1144 30.7964C70.505 30.6607 69.9634 30.4571 69.4895 30.1856C69.0156 29.8916 68.6432 29.5296 68.3724 29.0998C68.1241 28.6474 68 28.1158 68 27.505H85.0952V24.3154H74.2964V20.7186Z" fill="#2B2E34"/>
<path d="M110.329 31C109.63 31 109.043 30.9434 108.569 30.8303C108.117 30.7172 107.711 30.5815 107.35 30.4232C107.012 30.2648 106.707 30.0838 106.436 29.8802C106.165 29.6766 105.895 29.4844 105.624 29.3034L98.4471 23.1617V27.7425C98.4471 28.3533 98.3004 28.8736 98.007 29.3034C97.7362 29.7106 97.3639 30.0386 96.8899 30.2874C96.416 30.5363 95.8631 30.7172 95.2312 30.8303C94.6219 30.9434 93.9787 31 93.3016 31H92.7939V14H98.4471V21.499L105.827 14H112.089L104.371 21.9741L114.662 31H110.329Z" fill="#2B2E34"/>
<path d="M139.444 27.5729C139.444 28.1836 139.308 28.7039 139.037 29.1337C138.767 29.5409 138.394 29.8916 137.92 30.1856C137.469 30.4571 136.927 30.6607 136.295 30.7964C135.663 30.9321 134.986 31 134.264 31H121.739C121.039 31 120.385 30.9208 119.776 30.7625C119.166 30.5815 118.625 30.344 118.151 30.0499C117.699 29.7332 117.338 29.3713 117.068 28.9641C116.819 28.5343 116.695 28.0479 116.695 27.505V17.4611C116.695 16.9634 116.819 16.4997 117.068 16.0699C117.338 15.6174 117.699 15.2442 118.151 14.9501C118.625 14.6334 119.166 14.3959 119.776 14.2375C120.385 14.0792 121.039 14 121.739 14H134.264C135.799 14 137.04 14.3054 137.988 14.9162C138.958 15.5043 139.444 16.3753 139.444 17.5289V27.5729ZM133.79 17.5629H122.348V27.505H133.79V17.5629Z" fill="#2B2E34"/>
<path d="M158.584 31V24.3154H147.142V31H141.489V17.4611C141.489 16.9634 141.624 16.511 141.895 16.1038C142.166 15.674 142.527 15.312 142.978 15.018C143.452 14.7013 143.994 14.4524 144.603 14.2715C145.213 14.0905 145.867 14 146.567 14H147.142V20.7864H158.618V14H164.237V31H158.584Z" fill="#2B2E34"/>
<path d="M196.768 27.5729C196.768 28.2967 196.576 28.8849 196.192 29.3373C195.831 29.7898 195.369 30.1404 194.804 30.3892C194.263 30.6381 193.653 30.8077 192.976 30.8982C192.322 30.9661 191.701 31 191.115 31H179.266V30.6607C179.266 29.8689 179.469 29.2582 179.876 28.8283C180.304 28.3759 180.79 28.0592 181.331 27.8782C181.896 27.6747 182.471 27.5615 183.058 27.5389C183.667 27.5163 184.141 27.505 184.48 27.505H191.115V24.3154H179.199C178.86 24.3154 178.397 24.338 177.811 24.3832C177.224 24.4059 176.637 24.3606 176.05 24.2475C175.486 24.1118 175.001 23.8516 174.595 23.4671C174.189 23.0599 173.985 22.4378 173.985 21.6008V14.0339H174.459C174.82 14.0339 175.294 14.0566 175.881 14.1018C176.491 14.147 177.066 14.2601 177.608 14.4411C178.172 14.6221 178.657 14.9162 179.063 15.3234C179.469 15.7305 179.673 16.3187 179.673 17.0878V20.7186H191.115V14H196.768V27.5729Z" fill="#2B2E34"/>
<path d="M221.561 20.7186C221.561 21.9175 220.985 22.8224 219.834 23.4331C218.683 24.0213 217.138 24.3154 215.197 24.3154H206.734C206.734 23.9534 206.79 23.5576 206.903 23.1277C207.038 22.6753 207.23 22.2794 207.478 21.9401C207.749 21.6008 208.099 21.318 208.528 21.0918C208.957 20.843 209.464 20.7186 210.051 20.7186H215.874V17.5629H204.466V27.0299C204.466 28.6134 203.98 29.6993 203.01 30.2874C202.514 30.5815 201.949 30.7738 201.317 30.8643C200.686 30.9548 200.042 31 199.388 31H198.812V14H216.382C217.916 14 219.157 14.3054 220.105 14.9162C221.076 15.5269 221.561 16.4092 221.561 17.5629V20.7186Z" fill="#2B2E34"/>
<path d="M223.606 17.5629C223.606 16.4092 224.08 15.5269 225.028 14.9162C225.998 14.3054 227.251 14 228.786 14H251.026C252.561 14 253.802 14.3054 254.75 14.9162C255.72 15.5269 256.206 16.4092 256.206 17.5629V23.3313C256.206 24.5303 255.63 25.4351 254.479 26.0459C253.328 26.6341 251.782 26.9281 249.841 26.9281H242.733V27.0299C242.733 28.6134 242.247 29.6993 241.277 30.2874C240.78 30.5815 240.216 30.7738 239.584 30.8643C238.952 30.9548 238.309 31 237.655 31H237.079V26.9281H229.97C228.03 26.9281 226.484 26.6341 225.333 26.0459C224.182 25.4351 223.606 24.5303 223.606 23.3313V17.5629ZM242.733 23.3313H250.518V17.5629H242.733V23.3313ZM229.293 23.3313H237.079V17.5629H229.293V23.3313Z" fill="#2B2E34"/>
<path d="M281 27.5729C281 28.1836 280.865 28.7039 280.594 29.1337C280.323 29.5409 279.951 29.8916 279.477 30.1856C279.025 30.4571 278.484 30.6607 277.852 30.7964C277.22 30.9321 276.543 31 275.821 31H263.295C262.596 31 261.941 30.9208 261.332 30.7625C260.723 30.5815 260.181 30.344 259.707 30.0499C259.256 29.7332 258.895 29.3713 258.624 28.9641C258.376 28.5343 258.252 28.0479 258.252 27.505V17.4611C258.252 16.9634 258.376 16.4997 258.624 16.0699C258.895 15.6174 259.256 15.2442 259.707 14.9501C260.181 14.6334 260.723 14.3959 261.332 14.2375C261.941 14.0792 262.596 14 263.295 14H275.821C277.355 14 278.597 14.3054 279.544 14.9162C280.515 15.5043 281 16.3753 281 17.5289V27.5729ZM275.347 17.5629H263.905V27.505H275.347V17.5629Z" fill="#2B2E34"/>
<path d="M72.862 53.143C71.7527 53.143 70.7907 52.831 69.976 52.207C69.17 51.583 68.6587 50.829 68.442 49.945H69.716C69.9327 50.543 70.3227 51.037 70.886 51.427C71.458 51.8083 72.1167 51.999 72.862 51.999C73.7893 51.999 74.5823 51.7087 75.241 51.128C75.8997 50.5387 76.2897 49.7933 76.411 48.892H71.653V47.774H76.398C76.2593 46.89 75.865 46.1663 75.215 45.603C74.565 45.031 73.7807 44.745 72.862 44.745C72.1167 44.745 71.458 44.94 70.886 45.33C70.3227 45.7113 69.9327 46.2053 69.716 46.812H68.442C68.6587 45.928 69.17 45.174 69.976 44.55C70.782 43.9173 71.744 43.601 72.862 43.601C74.2227 43.601 75.358 44.0603 76.268 44.979C77.1867 45.889 77.646 47.02 77.646 48.372C77.646 49.724 77.1867 50.8593 76.268 51.778C75.358 52.688 74.2227 53.143 72.862 53.143ZM79.2854 53V46.5H80.4034V49.178H83.9524V46.5H85.0704V53H83.9524V50.192H80.4034V53H79.2854ZM89.9509 53.13C89.0062 53.13 88.2219 52.8093 87.5979 52.168C86.9826 51.5267 86.6749 50.7207 86.6749 49.75C86.6749 48.7707 86.9739 47.9647 87.5719 47.332C88.1786 46.6907 88.9802 46.37 89.9769 46.37C90.9822 46.37 91.7709 46.7253 92.3429 47.436C92.9149 48.1467 93.1662 49.0177 93.0969 50.049H87.8059C87.8232 50.6383 88.0399 51.1323 88.4559 51.531C88.8719 51.921 89.3746 52.116 89.9639 52.116C90.8479 52.116 91.4762 51.752 91.8489 51.024H92.9929C92.8282 51.6307 92.4772 52.1333 91.9399 52.532C91.4026 52.9307 90.7396 53.13 89.9509 53.13ZM91.2249 47.826C90.8696 47.514 90.4406 47.358 89.9379 47.358C89.4352 47.358 88.9846 47.5097 88.5859 47.813C88.1959 48.1163 87.9532 48.567 87.8579 49.165H91.9139C91.8099 48.5757 91.5802 48.1293 91.2249 47.826ZM95.8282 55.717H94.7102V46.5H95.8282V47.501C96.0536 47.1717 96.3699 46.903 96.7772 46.695C97.1932 46.4783 97.6396 46.37 98.1162 46.37C99.0176 46.37 99.7716 46.6993 100.378 47.358C100.994 48.0167 101.301 48.814 101.301 49.75C101.301 50.686 100.994 51.4833 100.378 52.142C99.7716 52.8007 99.0176 53.13 98.1162 53.13C97.6396 53.13 97.1932 53.026 96.7772 52.818C96.3699 52.6013 96.0536 52.3283 95.8282 51.999V55.717ZM96.3612 51.427C96.7772 51.8777 97.3059 52.103 97.9472 52.103C98.5886 52.103 99.1172 51.8777 99.5332 51.427C99.9492 50.9763 100.157 50.4173 100.157 49.75C100.157 49.0827 99.9492 48.5237 99.5332 48.073C99.1172 47.6223 98.5886 47.397 97.9472 47.397C97.3059 47.397 96.7772 47.6223 96.3612 48.073C95.9452 48.5237 95.7372 49.0827 95.7372 49.75C95.7372 50.4173 95.9452 50.9763 96.3612 51.427ZM102.911 53V46.5H106.98V47.527H104.029V53H102.911ZM110.939 53.13C109.96 53.13 109.145 52.805 108.495 52.155C107.854 51.4963 107.533 50.6947 107.533 49.75C107.533 48.8053 107.854 48.008 108.495 47.358C109.145 46.6993 109.96 46.37 110.939 46.37C111.91 46.37 112.716 46.6993 113.357 47.358C114.007 48.008 114.332 48.8053 114.332 49.75C114.332 50.6947 114.007 51.4963 113.357 52.155C112.716 52.805 111.91 53.13 110.939 53.13ZM109.301 51.414C109.726 51.8647 110.272 52.09 110.939 52.09C111.606 52.09 112.148 51.8647 112.564 51.414C112.98 50.9633 113.188 50.4087 113.188 49.75C113.188 49.0913 112.98 48.5367 112.564 48.086C112.148 47.6353 111.606 47.41 110.939 47.41C110.272 47.41 109.726 47.6353 109.301 48.086C108.885 48.5367 108.677 49.0913 108.677 49.75C108.677 50.4087 108.885 50.9633 109.301 51.414ZM118.823 53.13C117.843 53.13 117.033 52.805 116.392 52.155C115.75 51.4963 115.43 50.6947 115.43 49.75C115.43 48.8053 115.75 48.008 116.392 47.358C117.033 46.6993 117.843 46.37 118.823 46.37C119.629 46.37 120.326 46.5953 120.916 47.046C121.505 47.488 121.899 48.0687 122.099 48.788H120.903C120.747 48.3633 120.487 48.0253 120.123 47.774C119.759 47.5227 119.325 47.397 118.823 47.397C118.155 47.397 117.609 47.6223 117.185 48.073C116.769 48.5237 116.561 49.0827 116.561 49.75C116.561 50.4173 116.769 50.9763 117.185 51.427C117.609 51.8777 118.155 52.103 118.823 52.103C119.325 52.103 119.759 51.9773 120.123 51.726C120.487 51.4747 120.747 51.1367 120.903 50.712H122.099C121.908 51.4313 121.518 52.0163 120.929 52.467C120.339 52.909 119.637 53.13 118.823 53.13ZM126.699 53.13C125.677 53.13 124.858 52.792 124.242 52.116C123.636 51.44 123.332 50.5517 123.332 49.451V48.788C123.332 47.1933 123.618 46.0017 124.19 45.213C124.762 44.4157 125.698 43.8913 126.998 43.64L129.416 43.198V44.264L127.245 44.667C126.318 44.8317 125.646 45.1437 125.23 45.603C124.823 46.0623 124.567 46.7383 124.463 47.631C125.027 46.877 125.824 46.5 126.855 46.5C127.835 46.5 128.619 46.812 129.208 47.436C129.806 48.06 130.105 48.8227 130.105 49.724C130.105 50.6773 129.78 51.4833 129.13 52.142C128.489 52.8007 127.679 53.13 126.699 53.13ZM125.087 51.427C125.503 51.869 126.041 52.09 126.699 52.09C127.358 52.09 127.9 51.869 128.324 51.427C128.749 50.985 128.961 50.4173 128.961 49.724C128.961 49.074 128.749 48.5453 128.324 48.138C127.908 47.722 127.375 47.514 126.725 47.514C126.058 47.514 125.512 47.7263 125.087 48.151C124.671 48.567 124.463 49.0913 124.463 49.724C124.463 50.4173 124.671 50.985 125.087 51.427ZM134.473 53.13C133.529 53.13 132.744 52.8093 132.12 52.168C131.505 51.5267 131.197 50.7207 131.197 49.75C131.197 48.7707 131.496 47.9647 132.094 47.332C132.701 46.6907 133.503 46.37 134.499 46.37C135.505 46.37 136.293 46.7253 136.865 47.436C137.437 48.1467 137.689 49.0177 137.619 50.049H132.328C132.346 50.6383 132.562 51.1323 132.978 51.531C133.394 51.921 133.897 52.116 134.486 52.116C135.37 52.116 135.999 51.752 136.371 51.024H137.515C137.351 51.6307 137 52.1333 136.462 52.532C135.925 52.9307 135.262 53.13 134.473 53.13ZM135.747 47.826C135.392 47.514 134.963 47.358 134.46 47.358C133.958 47.358 133.507 47.5097 133.108 47.813C132.718 48.1163 132.476 48.567 132.38 49.165H136.436C136.332 48.5757 136.103 48.1293 135.747 47.826ZM140.351 55.717H139.233V46.5H140.351V47.501C140.576 47.1717 140.892 46.903 141.3 46.695C141.716 46.4783 142.162 46.37 142.639 46.37C143.54 46.37 144.294 46.6993 144.901 47.358C145.516 48.0167 145.824 48.814 145.824 49.75C145.824 50.686 145.516 51.4833 144.901 52.142C144.294 52.8007 143.54 53.13 142.639 53.13C142.162 53.13 141.716 53.026 141.3 52.818C140.892 52.6013 140.576 52.3283 140.351 51.999V55.717ZM140.884 51.427C141.3 51.8777 141.828 52.103 142.47 52.103C143.111 52.103 143.64 51.8777 144.056 51.427C144.472 50.9763 144.68 50.4173 144.68 49.75C144.68 49.0827 144.472 48.5237 144.056 48.073C143.64 47.6223 143.111 47.397 142.47 47.397C141.828 47.397 141.3 47.6223 140.884 48.073C140.468 48.5237 140.26 49.0827 140.26 49.75C140.26 50.4173 140.468 50.9763 140.884 51.427ZM150.203 53.13C149.258 53.13 148.474 52.8093 147.85 52.168C147.235 51.5267 146.927 50.7207 146.927 49.75C146.927 48.7707 147.226 47.9647 147.824 47.332C148.431 46.6907 149.232 46.37 150.229 46.37C151.234 46.37 152.023 46.7253 152.595 47.436C153.167 48.1467 153.418 49.0177 153.349 50.049H148.058C148.075 50.6383 148.292 51.1323 148.708 51.531C149.124 51.921 149.627 52.116 150.216 52.116C151.1 52.116 151.728 51.752 152.101 51.024H153.245C153.08 51.6307 152.729 52.1333 152.192 52.532C151.655 52.9307 150.992 53.13 150.203 53.13ZM151.477 47.826C151.122 47.514 150.693 47.358 150.19 47.358C149.687 47.358 149.237 47.5097 148.838 47.813C148.448 48.1163 148.205 48.567 148.11 49.165H152.166C152.062 48.5757 151.832 48.1293 151.477 47.826ZM154.962 53V46.5H159.031V47.527H156.08V53H154.962ZM162.794 53.13C161.893 53.13 161.135 52.8007 160.519 52.142C159.913 51.4833 159.609 50.686 159.609 49.75C159.609 48.814 159.913 48.0167 160.519 47.358C161.135 46.6993 161.893 46.37 162.794 46.37C163.271 46.37 163.713 46.4783 164.12 46.695C164.536 46.903 164.857 47.1717 165.082 47.501V46.5H166.2V53H165.082V51.999C164.857 52.3283 164.536 52.6013 164.12 52.818C163.713 53.026 163.271 53.13 162.794 53.13ZM162.963 52.103C163.605 52.103 164.133 51.8777 164.549 51.427C164.965 50.9763 165.173 50.4173 165.173 49.75C165.173 49.0827 164.965 48.5237 164.549 48.073C164.133 47.6223 163.605 47.397 162.963 47.397C162.313 47.397 161.78 47.6223 161.364 48.073C160.948 48.5237 160.74 49.0827 160.74 49.75C160.74 50.4173 160.948 50.9763 161.364 51.427C161.78 51.8777 162.313 52.103 162.963 52.103ZM173.895 53.13C173.037 53.13 172.309 52.8527 171.711 52.298C171.122 51.7433 170.775 51.0413 170.671 50.192H169.423V53H168.305V46.5H169.423V49.191H170.684C170.814 48.3677 171.169 47.6917 171.75 47.163C172.339 46.6343 173.054 46.37 173.895 46.37C174.84 46.37 175.62 46.695 176.235 47.345C176.85 47.995 177.158 48.7967 177.158 49.75C177.158 50.7033 176.85 51.505 176.235 52.155C175.62 52.805 174.84 53.13 173.895 53.13ZM172.374 51.414C172.773 51.856 173.28 52.077 173.895 52.077C174.51 52.077 175.017 51.856 175.416 51.414C175.815 50.9633 176.014 50.4087 176.014 49.75C176.014 49.0913 175.815 48.541 175.416 48.099C175.017 47.6483 174.51 47.423 173.895 47.423C173.28 47.423 172.773 47.644 172.374 48.086C171.984 48.528 171.789 49.0827 171.789 49.75C171.789 50.4087 171.984 50.9633 172.374 51.414ZM188.282 51.973V54.638H187.229V53H178.753V46.5H179.871V51.973H182.458V46.5H183.576V51.973H186.163V46.5H187.281V51.973H188.282ZM190.786 53H189.785V46.5H190.903V51.271L194.569 46.5H195.557V53H194.452V48.229L190.786 53ZM200.451 53.13C199.506 53.13 198.722 52.8093 198.098 52.168C197.483 51.5267 197.175 50.7207 197.175 49.75C197.175 48.7707 197.474 47.9647 198.072 47.332C198.679 46.6907 199.48 46.37 200.477 46.37C201.482 46.37 202.271 46.7253 202.843 47.436C203.415 48.1467 203.666 49.0177 203.597 50.049H198.306C198.323 50.6383 198.54 51.1323 198.956 51.531C199.372 51.921 199.875 52.116 200.464 52.116C201.348 52.116 201.976 51.752 202.349 51.024H203.493C203.328 51.6307 202.977 52.1333 202.44 52.532C201.903 52.9307 201.24 53.13 200.451 53.13ZM201.725 47.826C201.37 47.514 200.941 47.358 200.438 47.358C199.935 47.358 199.485 47.5097 199.086 47.813C198.696 48.1163 198.453 48.567 198.358 49.165H202.414C202.31 48.5757 202.08 48.1293 201.725 47.826ZM212.387 53V47.527H210.32V46.5H215.663V47.527H213.505V53H212.387ZM219.519 53.13C218.575 53.13 217.79 52.8093 217.166 52.168C216.551 51.5267 216.243 50.7207 216.243 49.75C216.243 48.7707 216.542 47.9647 217.14 47.332C217.747 46.6907 218.549 46.37 219.545 46.37C220.551 46.37 221.339 46.7253 221.911 47.436C222.483 48.1467 222.735 49.0177 222.665 50.049H217.374C217.392 50.6383 217.608 51.1323 218.024 51.531C218.44 51.921 218.943 52.116 219.532 52.116C220.416 52.116 221.045 51.752 221.417 51.024H222.561C222.397 51.6307 222.046 52.1333 221.508 52.532C220.971 52.9307 220.308 53.13 219.519 53.13ZM220.793 47.826C220.438 47.514 220.009 47.358 219.506 47.358C219.004 47.358 218.553 47.5097 218.154 47.813C217.764 48.1163 217.522 48.567 217.426 49.165H221.482C221.378 48.5757 221.149 48.1293 220.793 47.826ZM228.393 53L226.417 50.543L224.441 53H223.05L225.715 49.711L223.271 46.5H224.623L226.417 48.853L228.198 46.5H229.563L227.106 49.711L229.771 53H228.393ZM230.918 53V46.5H232.036V49.178H235.585V46.5H236.703V53H235.585V50.192H232.036V53H230.918ZM241.701 53.13C240.721 53.13 239.907 52.805 239.257 52.155C238.615 51.4963 238.295 50.6947 238.295 49.75C238.295 48.8053 238.615 48.008 239.257 47.358C239.907 46.6993 240.721 46.37 241.701 46.37C242.671 46.37 243.477 46.6993 244.119 47.358C244.769 48.008 245.094 48.8053 245.094 49.75C245.094 50.6947 244.769 51.4963 244.119 52.155C243.477 52.805 242.671 53.13 241.701 53.13ZM240.063 51.414C240.487 51.8647 241.033 52.09 241.701 52.09C242.368 52.09 242.91 51.8647 243.326 51.414C243.742 50.9633 243.95 50.4087 243.95 49.75C243.95 49.0913 243.742 48.5367 243.326 48.086C242.91 47.6353 242.368 47.41 241.701 47.41C241.033 47.41 240.487 47.6353 240.063 48.086C239.647 48.5367 239.439 49.0913 239.439 49.75C239.439 50.4087 239.647 50.9633 240.063 51.414ZM246.402 53.091C246.107 53.091 245.912 53.078 245.817 53.052V52.051C245.878 52.0683 246.016 52.077 246.233 52.077C246.502 52.077 246.701 51.986 246.831 51.804C246.961 51.6133 247.026 51.2797 247.026 50.803V46.5H252.044V53H250.926V47.527H248.144V51.037C248.144 51.7043 247.984 52.2157 247.663 52.571C247.342 52.9177 246.922 53.091 246.402 53.091ZM257.049 53.13C256.07 53.13 255.255 52.805 254.605 52.155C253.964 51.4963 253.643 50.6947 253.643 49.75C253.643 48.8053 253.964 48.008 254.605 47.358C255.255 46.6993 256.07 46.37 257.049 46.37C258.02 46.37 258.826 46.6993 259.467 47.358C260.117 48.008 260.442 48.8053 260.442 49.75C260.442 50.6947 260.117 51.4963 259.467 52.155C258.826 52.805 258.02 53.13 257.049 53.13ZM255.411 51.414C255.836 51.8647 256.382 52.09 257.049 52.09C257.717 52.09 258.258 51.8647 258.674 51.414C259.09 50.9633 259.298 50.4087 259.298 49.75C259.298 49.0913 259.09 48.5367 258.674 48.086C258.258 47.6353 257.717 47.41 257.049 47.41C256.382 47.41 255.836 47.6353 255.411 48.086C254.995 48.5367 254.787 49.0913 254.787 49.75C254.787 50.4087 254.995 50.9633 255.411 51.414ZM262.047 53V46.5H266.116V47.527H263.165V53H262.047ZM268.393 53H267.392V46.5H268.51V51.271L272.176 46.5H273.164V53H272.059V48.229L268.393 53ZM276.289 53H275.288V46.5H276.406V51.271L280.072 46.5H281.06V53H279.955V48.229L276.289 53Z" fill="#555555"/>
<defs>
<linearGradient id="paint0_linear_1_987" x1="30.8371" y1="37.3149" x2="28.0404" y2="65.9614" gradientUnits="userSpaceOnUse">
<stop stop-color="#1EA99E"/>
<stop offset="0.359375" stop-color="#D0FEFA"/>
<stop offset="1" stop-color="#1EA99E"/>
</linearGradient>
<linearGradient id="paint1_linear_1_987" x1="32.8771" y1="57.6167" x2="27.4127" y2="64.728" gradientUnits="userSpaceOnUse">
<stop stop-color="#188C83"/>
<stop offset="1" stop-color="white" stop-opacity="0"/>
</linearGradient>
<linearGradient id="paint2_linear_1_987" x1="42.7441" y1="26.0107" x2="33.7334" y2="57.2715" gradientUnits="userSpaceOnUse">
<stop stop-color="#2D63C8"/>
<stop offset="1" stop-color="#08A7FA"/>
</linearGradient>
<radialGradient id="paint3_radial_1_987" cx="0" cy="0" r="1" gradientUnits="userSpaceOnUse" gradientTransform="translate(19.2212 9.37259) rotate(-117.029) scale(10.5468 5.16135)">
<stop stop-color="#2AAFA4"/>
<stop offset="0.558139" stop-color="#D0FDF9"/>
<stop offset="1" stop-color="#2AAFA4"/>
</radialGradient>
<linearGradient id="paint4_linear_1_987" x1="14.7177" y1="2.83486" x2="17.9602" y2="13.449" gradientUnits="userSpaceOnUse">
<stop stop-color="#ADFFF8"/>
<stop offset="1" stop-color="#1EA99E"/>
</linearGradient>
<linearGradient id="paint5_linear_1_987" x1="34.6158" y1="-1.5513" x2="44.4231" y2="26.344" gradientUnits="userSpaceOnUse">
<stop stop-color="#00AFFF"/>
<stop offset="1" stop-color="#4268D5"/>
</linearGradient>
<linearGradient id="paint6_linear_1_987" x1="37.4902" y1="16.7087" x2="32.5036" y2="21.3065" gradientUnits="userSpaceOnUse">
<stop stop-color="white" stop-opacity="0.73"/>
<stop offset="1" stop-color="white" stop-opacity="0"/>
</linearGradient>
<linearGradient id="paint7_linear_1_987" x1="45.6892" y1="42.01" x2="40.3441" y2="40.2711" gradientUnits="userSpaceOnUse">
<stop stop-color="white" stop-opacity="0.18"/>
<stop offset="1" stop-color="white" stop-opacity="0"/>
</linearGradient>
<linearGradient id="paint8_linear_1_987" x1="28.1047" y1="32.3822" x2="9.50973" y2="52.1129" gradientUnits="userSpaceOnUse">
<stop stop-color="#0D9FF4"/>
<stop offset="1" stop-color="#2B67CB"/>
</linearGradient>
<linearGradient id="paint9_linear_1_987" x1="9.41271" y1="46.8023" x2="15.8756" y2="40.9881" gradientUnits="userSpaceOnUse">
<stop stop-color="white" stop-opacity="0.25"/>
<stop offset="1" stop-color="white" stop-opacity="0"/>
</linearGradient>
<linearGradient id="paint10_linear_1_987" x1="20.4197" y1="15.5872" x2="10.518" y2="37.0998" gradientUnits="userSpaceOnUse">
<stop stop-color="#06AAFC"/>
<stop offset="1" stop-color="#1B4CAA"/>
</linearGradient>
</defs>
</svg>
